<svg width="240" height="320" viewBox="0 0 240 320" fill="none" xmlns="http://www.w3.org/2000/svg">
<path d="M188.13 1.12H52.1301C43.2936 1.12 36.1301 8.28344 36.1301 17.12V285.12C36.1301 293.957 43.2936 301.12 52.1301 301.12H188.13C196.967 301.12 204.13 293.957 204.13 285.12V17.12C204.13 8.28344 196.967 1.12 188.13 1.12Z" fill="#0266DA"/>
<g style="mix-blend-mode:luminosity" opacity="0.3">
<path fill-rule="evenodd" clip-rule="evenodd" d="M179.59 147.73C176.17 145.27 172.88 142.67 169.67 139.91C168.14 143.99 165.79 147.68 162.75 150.58C165.74 154.14 168.57 157.83 171.27 161.64C165.56 167.18 158.03 169.9 150.42 170.64C148.06 166.6 145.9 162.41 143.94 158.13C138.26 158.53 132.54 157.77 126.97 156.37C127.8 160.41 128.37 164.48 128.71 168.6C117.31 165.67 106.39 160.44 96.3102 153.89C96.8202 150.3 97.6202 146.8 98.7502 143.38C92.4402 139.22 86.5002 134.39 81.0402 129.02C78.6702 131.43 76.0802 133.51 73.3002 135.34C64.4702 126.56 56.5502 116.53 50.5502 105.26C53.9802 104.11 57.5002 103.26 61.0502 102.68C58.0302 96.99 55.5702 90.89 54.0202 84.55C49.9302 83.98 45.8402 83.14 41.8402 82.05C39.9802 73.25 39.7802 63.94 42.3302 55.33C46.2402 56.89 50.0902 58.69 53.8602 60.65C55.0702 56.22 57.1302 52.12 59.9002 48.66C56.6802 46.1 53.5502 43.33 50.5502 40.48C55.4802 34.98 61.8702 31.28 68.6802 29.25C71.1402 32.12 75.4602 31 77.6602 34.09C81.9602 32.74 84.4502 36.3 88.9602 36.37C87.6302 33.43 86.4802 30.39 85.5302 27.26C93.6402 27.59 101.69 29.53 109.36 32.58C109.95 35.36 110.37 38.16 110.61 40.97C115.6 42.97 120.38 45.49 124.96 48.47C125.45 46.21 126.17 44 127.11 41.92C134.91 47.07 142.13 53.28 148.67 60.22C147.56 62.04 160.19 77.87 162.45 77.53C167.81 85.56 172.42 94.25 175.85 103.4C173.13 103.36 170.38 103.08 167.73 102.56C169.56 107.71 170.9 113.02 171.58 118.48C174.83 119.95 177.96 121.63 181.07 123.46C182.18 131.52 182.08 139.96 179.66 147.67L179.59 147.72V147.73ZM142.76 110.79C142.47 112.53 141.92 114.22 141.1 115.77C135.7 125.94 122.5 123.66 114.11 119.7C112.27 118.83 110.46 117.8 108.7 116.69C106.37 115.21 104.17 113.56 102.1 111.7C100.3 110.13 98.5902 108.39 96.9902 106.56C89.9802 98.54 82.8502 85.55 87.0402 74.33C91.6602 62.06 106.26 63.31 115.64 67.83C117.48 68.7 119.26 69.77 120.98 70.88C129.39 76.47 136.59 84.94 140.49 94.83C142.44 99.81 143.68 105.44 142.73 110.79H142.77H142.76Z" fill="#FFA32E"/>
<path fill-rule="evenodd" clip-rule="evenodd" d="M50.5002 105.26C50.5002 105.26 57.8302 120.56 73.2502 135.34L89.6002 119.43L66.8502 89.35L50.5402 105.22L50.5102 105.26H50.5002Z" fill="#FC744A"/>
<path fill-rule="evenodd" clip-rule="evenodd" d="M70.32 68.68L53.97 84.59C53.97 84.59 46.65 83.98 41.79 82.09L58.14 66.18C58.14 66.18 63.27 67.82 70.32 68.68Z" fill="#FF811C"/>
<path fill-rule="evenodd" clip-rule="evenodd" d="M97.3002 113.17L80.9502 129.08C80.9502 129.08 76.4902 133.48 73.2102 135.4L89.5602 119.49C89.5602 119.49 93.8902 116.3 97.3002 113.17Z" fill="#FF811C"/>
<path fill-rule="evenodd" clip-rule="evenodd" d="M112.59 138.07L96.2402 153.98C96.2402 153.98 108.53 163.39 128.64 168.69L144.99 152.78C144.99 152.78 126.83 147.68 112.59 138.07Z" fill="#FC744A"/>
<path fill-rule="evenodd" clip-rule="evenodd" d="M96.2603 153.93L112.61 138.02C112.61 138.02 113.26 131.93 115.05 127.52C115.05 127.52 104.18 136.21 98.7002 143.43C98.7002 143.43 96.9003 149.13 96.2603 153.93Z" fill="#FF811C"/>
<path fill-rule="evenodd" clip-rule="evenodd" d="M143.93 158.14L160.28 142.23C160.28 142.23 163.89 149.85 166.76 154.74L150.41 170.65C150.41 170.65 146.1 163.49 143.93 158.14Z" fill="#FF811C"/>
<path fill-rule="evenodd" clip-rule="evenodd" d="M150.42 170.67C150.42 170.67 161.88 170.95 171.27 161.67L187.62 145.76L166.77 154.76L150.42 170.67Z" fill="#FC744A"/>
<path fill-rule="evenodd" clip-rule="evenodd" d="M195.9 131.87L179.58 147.74L171.69 134.36L185.78 120.61L195.92 131.82L195.89 131.86L195.9 131.87Z" fill="#FF811C"/>
<path fill-rule="evenodd" clip-rule="evenodd" d="M192.13 87.57L175.78 103.48L178.44 87.28L182.15 83.92L192.09 87.61L192.12 87.57H192.13Z" fill="#FF811C"/>
<path fill-rule="evenodd" clip-rule="evenodd" d="M143.38 26.01L127.03 41.92L143.03 40.7L143.38 26.01Z" fill="#FF811C"/>
<path fill-rule="evenodd" clip-rule="evenodd" d="M101.85 11.36L85.5002 27.27L108.95 25.87L112.5 16.89L101.81 11.41L101.84 11.37L101.85 11.36Z" fill="#FF811C"/>
<path fill-rule="evenodd" clip-rule="evenodd" d="M50.4902 40.48L59.8302 48.66L76.1802 32.75L66.8302 24.57L50.4802 40.48H50.4902Z" fill="#FF811C"/>
<path fill-rule="evenodd" clip-rule="evenodd" d="M58.6201 39.48L42.2701 55.39C42.2701 55.39 38.1301 67.85 41.7801 82.11L58.1301 66.2L58.6201 39.48Z" fill="#FC744A"/>
<path fill-rule="evenodd" clip-rule="evenodd" d="M195.9 131.87C192.48 129.41 189.18 126.81 185.98 124.05C184.45 128.13 182.1 131.82 179.06 134.72C182.05 138.28 184.88 141.96 187.58 145.78C181.87 151.32 174.34 154.04 166.73 154.78C164.37 150.73 162.21 146.55 160.25 142.27C154.57 142.67 148.85 141.91 143.28 140.51C144.1 144.55 144.68 148.62 145.02 152.74C133.62 149.81 122.7 144.58 112.62 138.03C113.13 134.44 113.93 130.94 115.06 127.53C108.75 123.36 102.81 118.54 97.35 113.17C94.98 115.58 92.39 117.66 89.61 119.49C80.78 110.71 72.86 100.68 66.86 89.41C70.29 88.26 73.81 87.41 77.36 86.83C74.34 81.14 71.88 75.04 70.33 68.7C66.24 68.13 62.15 67.29 58.15 66.2C56.29 57.4 56.09 48.09 58.64 39.48C62.55 41.04 66.4 42.84 70.17 44.8C71.38 40.37 73.44 36.27 76.21 32.81C72.99 30.25 69.86 27.48 66.86 24.63C71.79 19.13 78.18 15.43 84.99 13.4C87.45 16.27 89.78 19.23 91.98 22.32C96.28 20.97 100.8 20.44 105.28 20.51C103.95 17.57 102.8 14.53 101.85 11.4C109.96 11.73 118.01 13.67 125.68 16.72C126.27 19.5 126.69 22.3 126.93 25.11C131.92 27.11 136.7 29.63 141.28 32.61C141.77 30.35 142.48 28.14 143.43 26.06C151.23 31.21 158.45 37.42 164.99 44.36C163.88 46.18 162.55 47.87 161.05 49.34C165.09 53.69 168.8 58.34 172.11 63.34C174.29 62.58 176.49 62.06 178.78 61.71C184.14 69.74 188.75 78.43 192.18 87.58C189.46 87.54 186.72 87.26 184.06 86.74C185.89 91.89 187.23 97.2 187.91 102.66C191.16 104.13 194.29 105.81 197.41 107.64C198.52 115.7 198.42 124.14 195.99 131.85H195.92L195.9 131.87ZM159.07 94.92C158.78 96.66 158.23 98.35 157.41 99.9C152.01 110.07 138.81 107.79 130.42 103.83C128.58 102.96 126.77 101.93 125.01 100.82C122.68 99.34 120.48 97.69 118.41 95.83C116.61 94.26 114.9 92.52 113.29 90.69C106.28 82.67 99.15 69.68 103.34 58.46C107.96 46.19 122.56 47.44 131.94 51.96C133.78 52.83 135.56 53.9 137.28 55.01C145.69 60.6 152.88 69.07 156.79 78.96C158.74 83.94 159.97 89.57 159.03 94.92H159.07Z" fill="#FFCD30"/>
<path fill-rule="evenodd" clip-rule="evenodd" d="M101.85 13.35C100.85 13.33 100.05 12.48 100.01 11.39C100.01 10.3 100.78 9.44999 101.78 9.42999C101.78 9.42999 113.36 9.45999 126.26 14.88C126.86 15.13 127.27 15.68 127.41 16.36C127.41 16.36 128.22 20.6 128.56 23.71C130.57 24.56 135.06 26.53 140.12 29.65C140.49 28.33 141.04 26.68 141.75 25.17C141.99 24.68 142.38 24.33 142.83 24.17C143.28 24.01 143.82 24.07 144.25 24.38C144.25 24.38 156.69 32.38 166.16 43C166.76 43.68 166.87 44.72 166.4 45.46C166.4 45.46 165.1 47.53 163.49 49.36C165.42 51.58 169.27 56.14 172.67 60.98C174.16 60.52 176.63 59.81 178.51 59.71C179.11 59.65 179.72 59.98 180.09 60.53C180.09 60.53 189.34 74.28 193.72 86.88C193.92 87.48 193.84 88.15 193.5 88.69C193.16 89.23 192.62 89.52 192.01 89.5C192.01 89.5 189.25 89.46 186.58 89.14C187.37 91.78 188.5 95.95 189.34 101.23C190.84 101.94 193.95 103.46 198.05 105.86C198.47 106.09 198.76 106.49 198.91 106.98C198.91 106.98 201.09 113.53 199.18 125C199 126.07 198.06 126.74 197.08 126.57C196.09 126.36 195.46 125.33 195.64 124.26C196.99 116.16 196.14 110.8 195.71 108.97C190.49 105.98 187.09 104.49 187.09 104.49C186.49 104.24 186.08 103.66 185.97 102.97C184.58 93.54 182.24 87.51 182.24 87.51C181.96 86.84 182.1 86.05 182.51 85.5C182.96 84.95 183.65 84.69 184.31 84.86C185.7 85.23 187.73 85.42 189.34 85.49C185.59 76.1 179.7 66.68 177.81 63.76C175.45 64.11 172.59 65.17 172.59 65.17C171.83 65.44 171.02 65.17 170.55 64.44C165.79 57.4 159.66 50.65 159.66 50.65C159.3 50.26 159.1 49.73 159.12 49.19C159.14 48.65 159.37 48.12 159.73 47.77C160.75 46.85 161.79 45.47 162.48 44.51C155.65 37.17 147.6 31.31 144.15 28.89C143.36 31.07 142.95 33.05 142.95 33.05C142.83 33.65 142.41 34.15 141.9 34.4C141.39 34.64 140.78 34.59 140.28 34.25C132.98 29.44 126.3 26.95 126.3 26.95C125.6 26.71 125.14 26.01 125.06 25.21C124.93 23.16 124.35 19.84 124.04 18.12C112.21 13.37 101.8 13.3 101.8 13.3L101.84 13.37L101.85 13.35Z" fill="#FBF8A9"/>
<path fill-rule="evenodd" clip-rule="evenodd" d="M126.58 47.88C127.54 48.17 128.11 49.25 127.86 50.32C127.6 51.36 126.63 51.96 125.63 51.67C125.63 51.67 120.03 49.96 114.46 51.13C110.96 51.86 107.46 53.72 105.52 58.07C103.5 62.62 103.52 67.91 105.16 73.31C107.71 81.81 114.1 90.48 123.05 97.14C131.88 103.7 140.1 105.89 146.31 105.05C150.12 104.56 153.14 102.9 154.9 100.44C159.45 94.01 157.14 85.72 155.76 81.15C155.45 80.13 155.98 78.99 156.91 78.7C157.84 78.38 158.87 78.97 159.18 79.99C160.82 85.43 163.18 95.23 157.78 102.87C155.52 106.05 151.73 108.28 146.83 108.92C139.95 109.83 130.83 107.61 121.07 100.32C111.39 93.1 104.53 83.63 101.76 74.41C99.8402 67.99 99.9002 61.68 102.3 56.28C104.79 50.67 109.26 48.17 113.74 47.23C120.15 45.9 126.56 47.84 126.56 47.84V47.88H126.58Z" fill="#FBF8A9"/>
<path d="M66.8501 24.61C66.8501 24.61 73.3001 17.1 84.9801 13.38" stroke="#FBF8A9" stroke-width="1.01" stroke-linecap="round" stroke-linejoin="round"/>
</g>
<path fill-rule="evenodd" clip-rule="evenodd" d="M153.64 52.99C153.51 53.11 150.08 53.51 146.02 53.87C141.96 54.23 137.95 54.73 137.13 54.96C136.3 55.2 133.2 55.59 130.23 55.84C114.54 57.15 95.0101 59.91 95.5101 60.74C95.8301 61.26 95.5501 61.34 94.8801 60.92C93.3701 59.98 77.8901 61.3 78.5101 62.32C78.7601 62.73 77.9401 62.87 76.6901 62.63C75.0201 62.31 73.6901 63.06 71.6701 65.49C69.0701 68.61 68.9601 69.16 69.5101 75.77C70.4501 86.92 70.9701 89.37 72.8301 91.46C76.0001 95.01 78.5701 95.31 91.6801 93.59C98.5301 92.69 104.9 91.99 105.84 92.02C106.78 92.05 107.79 91.67 108.09 91.19C108.39 90.7 109.25 90.54 109.99 90.83C111.7 91.49 163.65 85.35 165.7 84.25C170.98 81.4 171.92 77.45 170.21 65.46C169.19 58.34 168.61 56.76 166.27 54.72C164.06 52.8 162.57 52.38 158.69 52.56C156.03 52.68 153.75 52.88 153.62 53L153.64 52.99ZM164.32 56.7C167.12 59.14 168.51 64.52 168.62 73.44C168.73 81.94 168.49 82.05 141.55 85.39C128.57 87 115.07 88.56 111.55 88.87C108.03 89.17 105 89.82 104.82 90.32C104.64 90.82 104.05 90.95 103.51 90.61C102.97 90.27 97.5301 90.56 91.4301 91.25C85.3201 91.94 79.2701 92.23 77.9701 91.89C74.5401 91.01 73.2001 88.14 72.1101 79.35C71.0101 70.5 71.8501 66.87 75.3401 65.35C78.1301 64.14 97.9301 61.31 103.03 61.4C105.11 61.43 106.59 61.11 106.33 60.67C106.06 60.23 108.13 59.86 110.92 59.84C115.95 59.8 130.32 58.41 131.27 57.86C131.54 57.7 135.09 57.27 139.15 56.89C143.21 56.51 149.2 55.86 152.45 55.43C158.49 54.6433 162.453 55.0667 164.34 56.7H164.32ZM154.54 59.15C154.25 59.63 154.51 64.35 155.12 69.65L156.24 79.27H159.26C164.51 79.23 165.23 78.13 164.9 70.62C164.5 61.44 163.22 58.97 158.67 58.58C156.69 58.41 154.83 58.67 154.54 59.15ZM145.16 60.08C142.95 60.52 142.85 60.84 143.44 65.68C144.95 78.19 145.28 80.77 145.4 80.85C145.47 80.9 147.41 80.74 149.72 80.5C152.46 80.21 153.91 79.57 153.91 78.65C153.91 77.63 153.2 77.42 151.34 77.89C148.47 78.62 147.05 77.19 147.03 73.55C147.03 71.97 147.59 71.31 148.99 71.31C150.12 71.31 150.96 70.65 150.96 69.76C150.96 68.72 150.23 68.31 148.74 68.52C146.89 68.78 146.47 68.31 146.22 65.67C145.96 62.92 146.25 62.47 148.47 62.19C149.87 62.01 151.12 61.42 151.24 60.88C151.48 59.76 148.68 59.39 145.17 60.09L145.16 60.08ZM137.16 61.42C137.16 62 137.67 66.7 138.3 71.86C139.11 78.47 139.83 81.25 140.76 81.25C142.36 81.25 142.36 81.42 140.94 69.75C140.13 63.14 139.41 60.36 138.48 60.36C137.75 60.36 137.16 60.83 137.16 61.41V61.42ZM128.91 62.07C127.23 62.51 127.13 63.25 127.75 70.66C128.6 80.79 129.22 83.43 130.63 82.95C131.31 82.72 131.61 80.78 131.41 77.93C131.11 73.78 131.29 73.29 133.13 73.29C134.26 73.29 135.19 72.84 135.19 72.3C135.19 71.76 134.08 71.31 132.73 71.31C130.58 71.31 130.27 70.87 130.27 67.9C130.27 65.16 130.69 64.42 132.41 64.17C135.4 63.73 135.98 61.33 133.06 61.48C131.8 61.54 129.93 61.81 128.92 62.07H128.91ZM161.11 62.11C161.34 62.52 161.83 66 162.19 69.85C162.81 76.4 162.72 76.85 160.88 76.85C159.22 76.85 158.82 75.98 158.33 71.34C158.01 68.31 157.53 64.83 157.28 63.6C156.93 61.88 157.28 61.36 158.75 61.36C159.81 61.36 160.87 61.7 161.1 62.11H161.11ZM121.79 69.44C122.8 80.44 123.44 83.25 124.93 83.25C125.94 83.25 126.15 82.2 125.75 79.02C125.46 76.7 124.92 72.14 124.54 68.91C124.11 65.26 123.33 62.85 122.48 62.56C121.35 62.18 121.23 63.4 121.78 69.44H121.79ZM111.95 64.14C111.18 64.65 111.23 67.65 112.12 74.8C112.8 80.27 113.4 84.88 113.44 85.05C113.48 85.22 114.07 85.01 114.75 84.59C115.43 84.17 117.2 83.95 118.69 84.11C120.67 84.32 121.4 83.95 121.4 82.75C121.4 81.45 120.8 81.24 118.55 81.74L115.7 82.37L114.99 75.26C114.08 66.09 113.3 63.25 111.95 64.14ZM100.71 68.82C100.71 70.73 101.15 72.3 101.7 72.3C102.25 72.3 102.69 71.85 102.69 71.31C102.69 70.77 103.13 70.32 103.68 70.32C104.23 70.32 104.67 71.1 104.67 72.06C104.67 73.02 105.31 75.03 106.09 76.54C107.45 79.17 107.41 79.28 105.1 79.28C103.21 79.28 102.7 78.76 102.7 76.85C102.7 75.51 102.26 74.15 101.71 73.81C101.11 73.44 100.7 75.06 100.65 77.98C100.61 80.61 100.43 83.55 100.25 84.5C100.05 85.54 100.52 86.24 101.43 86.24C102.45 86.24 102.77 85.6 102.42 84.25C102 82.65 102.39 82.26 104.41 82.26C105.79 82.26 107.49 83.04 108.18 84C109.71 86.11 111.12 85.04 110.08 82.55C109.67 81.57 109.21 79.86 109.06 78.75C108.91 77.64 108.05 74.17 107.15 71.04C105.74 66.13 105.18 65.35 103.12 65.35C101.06 65.35 100.73 65.81 100.73 68.83L100.71 68.82ZM93.6601 70.81C93.8501 73.27 94.3001 75.29 94.6501 75.29C95.0001 75.29 95.2901 77.46 95.2901 80.11C95.2901 84.31 95.0301 84.92 93.3201 84.83C91.3701 84.73 90.7301 82.37 89.6301 71.18C89.4601 69.46 88.9201 68.75 88.0401 69.09C87.0101 69.49 86.8601 71.07 87.4001 76.09C88.3201 84.8 89.5101 87.22 92.8601 87.22C94.3301 87.22 96.0101 86.65 96.5901 85.94C97.8501 84.41 97.1101 74.41 95.6001 72.57C94.9601 71.79 94.9301 71.3 95.5201 71.3C96.0501 71.3 96.2801 70.18 96.0201 68.81C95.1801 64.36 93.2701 65.97 93.6501 70.8L93.6601 70.81ZM77.1801 68.41C74.8801 69.34 74.8401 69.56 75.4901 77.55C75.9901 83.63 76.6401 86.22 78.0401 87.64C79.5501 89.17 80.2001 89.31 81.3601 88.34C82.3401 87.52 83.0101 87.46 83.4401 88.17C84.7001 90.23 86.9801 89.32 86.4201 86.98C86.1301 85.75 85.4901 81.48 85.0101 77.49C83.8301 67.77 82.5201 66.25 77.1701 68.41H77.1801ZM82.0501 74.4C83.1401 81.14 82.6401 85.67 80.7701 86.04C79.7201 86.25 79.0501 85.77 79.0501 84.81C79.0501 83.95 78.5001 83.21 77.8201 83.17C77.0901 83.12 77.0201 82.91 77.6301 82.65C78.2801 82.38 78.5101 79.9 78.2401 76.17C77.8501 70.69 77.9801 70.16 79.6401 70.48C80.8801 70.72 81.6601 72 82.0501 74.4Z" fill="white"/>
<path fill-rule="evenodd" clip-rule="evenodd" d="M33.5101 300.16C33.7201 299.14 34.1201 298.19 34.7701 297.73C35.6201 297.13 35.9901 296.91 35.5501 299.58C35.1101 302.25 34.8701 307.17 34.8701 307.17C34.8701 307.17 37.1901 305.89 40.9001 306.1C44.6101 306.31 47.4801 308.14 47.4801 308.14L47.7101 309.02C47.7101 309.02 48.1301 309.2 48.2001 309.6C48.2701 310.01 48.3601 312.72 48.0101 313.4C47.6601 314.08 45.5201 317.13 39.9301 316.71C34.3401 316.29 33.3901 313.25 33.0801 312.82C32.7701 312.39 32.7201 304.09 33.5101 300.17V300.16Z" fill="#C1C8D2"/>
<path fill-rule="evenodd" clip-rule="evenodd" d="M37.93 268.5C37.93 268.5 37.53 286.36 38.38 291.39C39.22 296.42 44.65 295.66 45.19 291.2C45.73 286.73 46.51 280.95 47.43 274.85C48.35 268.75 37.93 268.5 37.93 268.5Z" fill="#CF7650"/>
<path fill-rule="evenodd" clip-rule="evenodd" d="M46.9501 278.06C44.0701 280.71 39.8501 280.77 37.8501 280.62C37.8001 274.56 37.9301 268.5 37.9301 268.5C37.9301 268.5 48.3501 268.75 47.4301 274.85C47.2701 275.93 47.1101 277 46.9501 278.06Z" fill="#A3533E"/>
<path fill-rule="evenodd" clip-rule="evenodd" d="M34.7801 297.72C34.7801 297.72 35.2901 294.4 36.0401 291.88C36.0401 291.88 34.5801 284.99 37.8901 283.61C37.8901 283.61 37.9901 286.58 38.0701 288.38C38.0701 288.38 39.4101 285.57 42.1601 285.64C44.9101 285.72 45.4301 289.11 45.4301 289.11L45.9101 285.4C45.9101 285.4 47.6001 285.58 46.3401 292.94C46.3401 292.94 47.9701 298.84 47.7001 309C47.7001 309 45.7301 306.42 40.4001 306.47C35.0701 306.52 34.3701 308.61 34.3701 308.61C34.3701 308.61 35.0301 300.45 35.4401 298.49C35.6701 297.4 34.7601 297.71 34.7601 297.71L34.7801 297.72Z" fill="#1E2A38"/>
<path d="M37.8401 292.47C38.0001 292.29 38.7601 290.82 41.3501 290.91C43.9401 291 44.5101 292.76 44.5101 292.76" stroke="#C1C8D2" stroke-width="2.42" stroke-linecap="round" stroke-linejoin="round"/>
<path d="M37.7002 291.88C37.8602 291.7 38.8602 290.23 41.4502 290.32C44.0402 290.41 44.6102 292.17 44.6102 292.17" stroke="white" stroke-width="1.61" stroke-linecap="round" stroke-linejoin="round"/>
<path d="M37.6001 296.17C37.6001 296.17 38.3001 294.19 41.0101 294.32C43.7101 294.45 44.3201 296.42 44.3201 296.42" stroke="#C1C8D2" stroke-width="2.42" stroke-linecap="round" stroke-linejoin="round"/>
<path d="M37.4102 295.58C37.4102 295.58 38.4102 293.6 41.1102 293.73C43.8102 293.86 44.4202 295.83 44.4202 295.83" stroke="white" stroke-width="1.61" stroke-linecap="round" stroke-linejoin="round"/>
<path d="M37.3101 299.86C37.3101 299.86 38.1801 297.73 41.0601 298.01C43.9401 298.3 44.2201 300.35 44.2201 300.35" stroke="#C1C8D2" stroke-width="2.42" stroke-linecap="round" stroke-linejoin="round"/>
<path d="M37.21 299.28C37.21 299.28 38.27 297.14 41.16 297.43C44.04 297.72 44.32 299.77 44.32 299.77" stroke="white" stroke-width="1.61" stroke-linecap="round" stroke-linejoin="round"/>
<path d="M37.21 303.76C37.21 303.76 37.9 301.48 41.16 301.81C44.41 302.14 44.32 304.64 44.32 304.64" stroke="#C1C8D2" stroke-width="2.42" stroke-linecap="round" stroke-linejoin="round"/>
<path d="M37.1101 302.98C37.1101 302.98 38.0001 300.9 41.2501 301.22C44.5001 301.55 44.4101 304.05 44.4101 304.05" stroke="white" stroke-width="1.61" stroke-linecap="round" stroke-linejoin="round"/>
<path fill-rule="evenodd" clip-rule="evenodd" d="M72.05 298.89C72.05 298.89 71.73 296 71.76 295.58C71.79 295.16 72.41 295.15 72.41 295.15C72.41 295.15 76.39 296 79.96 296.32C83.53 296.63 84.84 296.84 87.63 298.41C90.42 299.98 90.74 299.77 90.74 299.77C90.74 299.77 91.77 295.26 94.24 294.87C96.72 294.48 100.17 296.84 99.2 302.49C99.2 302.49 97.16 304.76 92.1 304.05C88.41 303.53 84.53 300.55 80.64 300.19C76.76 299.83 73.69 299.91 72.05 298.89Z" fill="#C1C8D2"/>
<path fill-rule="evenodd" clip-rule="evenodd" d="M68.75 266.09C68.75 266.09 73.32 288.04 75.95 291C78.58 293.96 87.87 294.91 86.46 291.97C85.05 289.03 80.99 286.43 79.96 282.04C78.93 277.65 79.38 266.2 77.9 265.2C74.83 263.12 68.75 266.08 68.75 266.08V266.09Z" fill="#CF7650"/>
<path fill-rule="evenodd" clip-rule="evenodd" d="M79.17 273.71C76.81 276.1 73.57 276.98 71.33 277.3C69.88 271.49 68.75 266.09 68.75 266.09C68.75 266.09 74.82 263.14 77.9 265.21C78.73 265.77 78.96 269.64 79.17 273.7V273.71Z" fill="#A3533E"/>
<path fill-rule="evenodd" clip-rule="evenodd" d="M72.44 295.39C72.44 295.39 71.28 287.77 71.56 285.56C71.84 283.35 72.9 283.24 72.9 283.24C72.9 283.24 73.8 286.16 74.58 288.38C74.58 288.38 76.66 290.17 81.39 290.33C81.39 290.33 78.58 287.37 79.44 285.76C80.3 284.14 81.12 284.92 81.12 284.92C81.12 284.92 80.48 283.95 80.03 282.38C80.03 282.38 81.08 282.94 81.97 285.27C81.97 285.27 83.9 286.04 84.99 287.8C86.08 289.56 88.47 291.14 91.02 292.96C93.57 294.78 94.23 294.88 94.23 294.88C94.23 294.88 92.14 296.7 91.51 299C90.87 301.3 91.3 300.87 90.34 300.46C89.38 300.05 85.78 297.66 80.71 296.86C77.71 296.39 72.44 296.38 72.44 295.4V295.39Z" fill="#1E2A38"/>
<path d="M82.08 293.15C82.08 293.15 81.91 289.31 85.29 287.8" stroke="#C1C8D2" stroke-width="2.42" stroke-linecap="round" stroke-linejoin="round"/>
<path d="M81.6801 292.76C81.6801 292.76 81.5101 288.93 84.8901 287.41" stroke="white" stroke-width="1.61" stroke-linecap="round" stroke-linejoin="round"/>
<path d="M84.6101 294.31C84.6101 294.31 84.6101 290.81 87.4301 289.84" stroke="#C1C8D2" stroke-width="2.42" stroke-linecap="round" stroke-linejoin="round"/>
<path d="M84.22 293.92C84.22 293.92 84.22 290.42 87.04 289.45" stroke="white" stroke-width="1.61" stroke-linecap="round" stroke-linejoin="round"/>
<path d="M87.2302 295.93C87.2302 295.93 87.0602 292.45 89.7602 291.58" stroke="#C1C8D2" stroke-width="2.42" stroke-linecap="round" stroke-linejoin="round"/>
<path d="M86.85 295.54C86.85 295.54 86.68 292.06 89.38 291.19" stroke="white" stroke-width="1.61" stroke-linecap="round" stroke-linejoin="round"/>
<path d="M89.7601 296.94C89.7601 296.94 89.6701 294.02 91.8001 293.14" stroke="#C1C8D2" stroke-width="2.42" stroke-linecap="round" stroke-linejoin="round"/>
<path d="M89.3702 296.55C89.3702 296.55 89.2802 293.63 91.4102 292.76" stroke="white" stroke-width="1.61" stroke-linecap="round" stroke-linejoin="round"/>
<path d="M72.05 298.89C72.05 298.89 72.64 299.53 76 299.84C79.36 300.15 80.71 299.98 83.26 300.78C85.81 301.57 89.23 304.02 93.29 304.18C97.36 304.34 99.19 302.5 99.19 302.5C99.19 302.5 99.86 299.62 98.62 297.35" stroke="#9AA6AD" stroke-width="1.61" stroke-linecap="round" stroke-linejoin="round"/>
<path fill-rule="evenodd" clip-rule="evenodd" d="M73.6202 191.66C73.6202 191.66 76.3102 222.63 77.7002 240.77C79.0902 258.92 80.2902 269.76 80.1002 270.39C79.9102 271.02 78.3102 273.16 72.4902 272.89C66.6702 272.63 65.7002 271.13 65.4002 270.28C65.1002 269.44 63.4002 249.24 62.9002 237.22C62.3902 225.2 59.8802 214.69 59.8802 214.69C59.8802 214.69 55.1202 223.85 53.7302 240.66C52.3402 257.47 50.2502 272.41 49.7702 273.72C49.2902 275.03 46.4602 276.09 42.1602 275.91C37.8602 275.73 34.8802 273.18 34.8602 272.26C34.8402 271.34 38.7402 247.16 39.6602 240.14C40.5802 233.12 40.7802 199.56 41.1202 194.2C41.4202 189.46 73.6302 191.65 73.6302 191.65L73.6202 191.66Z" fill="#133660"/>
<path fill-rule="evenodd" clip-rule="evenodd" d="M40.5201 240.67C40.1301 245.31 40.8001 250.61 42.4701 250.68C44.1401 250.75 42.7901 247.3 41.7801 244.63C41.1001 242.82 40.7901 237.44 40.5301 240.67H40.5201Z" fill="#092240"/>
<path fill-rule="evenodd" clip-rule="evenodd" d="M40.8501 237.78C40.6901 239.04 44.1701 244.69 44.4501 242.86C44.7301 241.03 41.0801 236 40.8501 237.78Z" fill="#092240"/>
<path fill-rule="evenodd" clip-rule="evenodd" d="M74.9601 152.32C74.8201 152.85 74.4901 153.47 73.8401 153.74C73.0201 154.08 71.8301 154 71.2301 153.93C63.3901 152.94 56.0201 150.53 49.0701 146.75C48.6701 146.53 47.6501 146.06 47.1301 145.17C46.6701 144.38 46.6901 143.17 46.6901 142.72C46.6901 134.37 49.5201 123.05 54.3101 115.47C59.5101 107.24 64.4501 108.45 65.7301 108.95C67.6401 108.68 69.6301 108.82 71.5701 109.45C77.7301 111.42 81.4501 117.56 80.8001 123.96C80.7301 124.92 80.5901 126.04 80.4001 127.27C80.3501 127.63 80.2901 128 80.2301 128.38C79.6601 132.17 77.9001 144.73 78.7101 151.49C79.3101 156.52 76.8701 154.52 74.9601 152.33V152.32Z" fill="#080C0F"/>
<path fill-rule="evenodd" clip-rule="evenodd" d="M41.8102 148.22C41.8102 148.22 46.0602 148.08 48.4402 151.12C48.4402 151.12 54.7002 148.81 62.3402 148.3C68.3402 147.9 76.0002 149.33 76.7002 148.93C77.6202 148.4 73.3502 143.95 68.1002 142.97C62.8502 142 50.6702 143.73 45.4302 145.44C41.3002 146.79 40.3902 147.79 41.8102 148.21V148.22Z" fill="#633FB1"/>
<path fill-rule="evenodd" clip-rule="evenodd" d="M43.8602 192.78C42.4702 185.66 42.7202 151 48.6102 149.17C54.5002 147.33 73.2202 144.81 76.1402 147.94C79.0602 151.07 80.5802 190.11 77.7602 193.96C74.9402 197.81 45.2602 199.9 43.8702 192.78H43.8602Z" fill="#8762D7"/>
<path fill-rule="evenodd" clip-rule="evenodd" d="M43.8901 194.15C43.8901 194.15 36.5801 188.14 36.6001 184.14C36.6301 180.13 38.2401 148.04 41.8701 147.08C45.5001 146.12 46.5101 147.08 48.2901 150.61C49.7601 153.52 46.1201 187.48 45.8201 190.76C45.5101 194.04 45.4801 195.14 43.9001 194.16L43.8901 194.15Z" fill="#8762D7"/>
<path fill-rule="evenodd" clip-rule="evenodd" d="M44.0602 148.7C43.7702 148.77 43.4802 148.6 43.4102 148.31C43.3402 148.02 43.5202 147.73 43.8002 147.66C43.8002 147.66 59.4102 143.71 72.4602 143.82C72.7602 143.82 73.0002 144.07 72.9902 144.36C72.9902 144.66 72.7502 144.9 72.4502 144.89C59.5302 144.78 44.0702 148.69 44.0702 148.69L44.0602 148.7Z" fill="#8762D7"/>
<path fill-rule="evenodd" clip-rule="evenodd" d="M67.54 157.2L74.44 175.02C74.44 175.02 75.2 176.53 76.55 176.27C77.9 176.01 82.69 174.63 85.15 172.25C87.61 169.87 87.33 169.17 87.27 167.85C87.23 166.95 86.67 164.54 85.09 160.59C83.61 156.9 80.44 150.41 77.96 148.8C76.34 147.62 74.23 147.15 72.15 147.69C69.18 148.46 67.16 151.05 66.97 153.95C66.92 154.67 66.99 155.4 67.18 156.13C67.28 156.5 67.4 156.86 67.55 157.19L67.54 157.2Z" fill="#0EB891"/>
<path fill-rule="evenodd" clip-rule="evenodd" d="M73.47 172.5L74.44 175.02C74.44 175.02 75.2 176.53 76.55 176.26C77.9 176 82.69 174.62 85.15 172.24C87.61 169.86 87.33 169.16 87.27 167.84C87.23 167 86.75 164.86 85.41 161.39C84.55 165.16 81.84 172 73.47 172.5Z" fill="#1D8D74"/>
<path fill-rule="evenodd" clip-rule="evenodd" d="M87.0601 169.89C87.0601 169.89 87.7301 171.85 87.6401 172.4C87.5401 172.96 86.3801 174.7 83.0201 176.49C79.6601 178.28 76.7301 178.4 76.6001 178.31C76.4701 178.23 75.6501 176.17 75.6501 176.17C75.6501 176.17 79.1001 175.79 82.4201 174.04C85.2901 172.52 87.0601 169.89 87.0601 169.89Z" fill="#133660"/>
<path fill-rule="evenodd" clip-rule="evenodd" d="M85.9901 174.27C85.7701 174.13 84.4801 175.76 81.8301 176.86C79.3701 177.88 77.1301 178.04 76.9301 178.17C76.7301 178.3 78.9501 184.18 80.4901 186.93C81.9501 189.53 83.3401 190.53 85.7301 190.9C88.5301 191.33 92.0501 187.03 90.6901 184.4C87.6501 178.49 86.4201 174.57 85.9801 174.27H85.9901Z" fill="#CF7650"/>
<path fill-rule="evenodd" clip-rule="evenodd" d="M87.4201 177.36C86.7101 175.64 86.1601 174.39 85.9901 174.27C85.7701 174.12 84.4801 175.76 81.8301 176.86C79.3701 177.88 77.1301 178.04 76.9301 178.17C76.7901 178.26 77.8401 181.05 78.9601 183.7C82.8301 183.39 85.8601 179.67 87.4201 177.36Z" fill="#B3573F"/>
<path fill-rule="evenodd" clip-rule="evenodd" d="M93.93 163.09C93.93 163.09 91.11 167.74 88.03 173.08C86.05 176.52 83.3 179.86 82.41 183.1C81.32 187.03 83.31 189.78 85.2 190.47C87 191.13 90.02 189.99 91.52 186.38C94.84 178.38 97.91 169.37 99.16 164.77C100.41 160.17 96.12 159.04 93.94 163.09H93.93Z" fill="#CF7650"/>
<path fill-rule="evenodd" clip-rule="evenodd" d="M99.8801 155.74C101.58 154.44 102.29 153.07 103.02 153.9C103.75 154.73 102.91 156.02 101.82 157.48C101.82 157.48 105.45 155.32 107.24 153.75C109.03 152.18 110.75 151.24 110.57 152.69L110.82 153.47C110.82 153.47 110.82 153.98 110.44 155.12C110.44 155.12 111.17 155.65 109.98 158.26C109.98 158.26 109.4 161.67 107.16 163.64C104.92 165.62 98.4701 169.48 95.8501 165.46C93.2301 161.44 95.7801 158.94 96.8701 158.1C97.9701 157.25 99.2301 156.25 99.8701 155.75L99.8801 155.74Z" fill="#CF7650"/>
<path fill-rule="evenodd" clip-rule="evenodd" d="M108.63 161.3C108.56 161.42 108.59 161.59 108.72 161.66C108.84 161.73 109 161.7 109.08 161.57C109.08 161.57 110.08 159.92 110.24 158.82C110.33 158.21 110.15 157.75 109.64 157.63C109.4 157.57 109.2 157.58 109.03 157.63C108.66 157.74 108.41 158.07 108.15 158.57C107.68 159.44 107.07 160.85 104.9 161.93C104.77 161.99 104.72 162.15 104.78 162.28C104.84 162.41 105 162.46 105.13 162.39C107.45 161.24 108.11 159.74 108.61 158.81C108.86 158.34 109.03 158.02 109.52 158.13C109.66 158.17 109.71 158.27 109.73 158.4C109.76 158.62 109.71 158.89 109.62 159.19C109.33 160.16 108.63 161.3 108.63 161.3Z" fill="#A3533E"/>
<path fill-rule="evenodd" clip-rule="evenodd" d="M103.18 153.69C103.06 153.61 102.9 153.63 102.82 153.75C102.73 153.87 102.76 154.03 102.87 154.11C102.87 154.11 103.24 154.43 102.95 155.21C102.71 155.86 102.07 156.75 100.64 157.98C100.54 158.06 100.52 158.2 100.58 158.31C100.64 158.42 100.77 158.46 100.89 158.42C100.89 158.42 102.86 157.71 105.63 155.32C107.25 153.92 108.38 152.87 109.23 152.39C109.68 152.13 110.03 152.03 110.32 152.24C110.44 152.32 110.6 152.29 110.68 152.18C110.76 152.06 110.74 151.9 110.62 151.82C110.19 151.52 109.66 151.56 108.98 151.95C108.12 152.44 106.95 153.51 105.3 154.94C104.11 155.97 103.07 156.68 102.28 157.15C102.93 156.44 103.27 155.86 103.44 155.41C103.66 154.82 103.6 154.41 103.49 154.15C103.37 153.85 103.18 153.71 103.18 153.71V153.69Z" fill="#A3533E"/>
<path fill-rule="evenodd" clip-rule="evenodd" d="M96.55 162.84C96.45 162.94 96.44 163.1 96.55 163.21C96.65 163.31 96.81 163.32 96.92 163.21C96.92 163.21 99.5 160.75 102.67 162.66C102.79 162.73 102.95 162.69 103.03 162.57C103.1 162.45 103.06 162.28 102.94 162.21C99.42 160.09 96.56 162.83 96.56 162.83L96.55 162.84Z" fill="#A3533E"/>
<path fill-rule="evenodd" clip-rule="evenodd" d="M103.89 157.92C103.76 157.98 103.7 158.13 103.75 158.26C103.8 158.39 103.96 158.45 104.09 158.4C104.09 158.4 106.84 157.24 108.04 155.52C108.85 154.36 109.3 153.54 109.67 153.12C109.84 152.93 109.96 152.83 110.14 152.88C110.41 152.96 110.54 153.16 110.56 153.45C110.59 153.84 110.46 154.36 110.2 155.02C110.15 155.15 110.21 155.31 110.35 155.36C110.48 155.41 110.63 155.35 110.69 155.21C110.98 154.46 111.11 153.85 111.08 153.41C111.04 152.87 110.77 152.53 110.29 152.39C109.93 152.28 109.62 152.39 109.28 152.78C108.9 153.21 108.44 154.04 107.61 155.23C106.48 156.85 103.89 157.93 103.89 157.93V157.92Z" fill="#A3533E"/>
<path fill-rule="evenodd" clip-rule="evenodd" d="M104.46 159.97C104.32 160.01 104.25 160.16 104.29 160.3C104.33 160.44 104.48 160.51 104.62 160.47C104.62 160.47 106.46 159.89 108.02 157.97C108.84 156.96 108.97 156.75 109.18 156.46C109.28 156.32 109.61 155.8 109.96 155.49C110.03 155.42 110.11 155.37 110.18 155.33C110.21 155.31 110.25 155.3 110.27 155.33C110.42 155.47 110.43 155.73 110.39 156.04C110.33 156.63 110.06 157.36 109.79 157.99C109.73 158.12 109.79 158.28 109.93 158.33C110.06 158.39 110.22 158.33 110.27 158.19C110.56 157.51 110.85 156.72 110.92 156.09C110.97 155.59 110.88 155.18 110.63 154.94C110.41 154.73 110.12 154.75 109.83 154.94C109.39 155.23 108.89 155.98 108.76 156.16C108.56 156.45 108.43 156.65 107.62 157.64C106.17 159.42 104.46 159.97 104.46 159.97Z" fill="#A3533E"/>
<path d="M94.2702 148.87L90.9502 143.35" stroke="#47A9E0" stroke-linecap="round"/>
<path d="M99.0102 147.36L97.4402 140.31" stroke="#47A9E0" stroke-linecap="round"/>
<path d="M104.16 146.51L106.62 141.52" stroke="#47A9E0" stroke-linecap="round"/>
<path fill-rule="evenodd" clip-rule="evenodd" d="M74.9801 177.28C74.9801 177.28 72.2801 182.9 73.7201 193.1C75.1601 203.3 75.9201 207.24 75.0801 207.95C74.1601 208.74 66.7201 212.67 49.7301 213.05C49.7301 213.05 48.5201 211.91 47.2001 206.2C47.1101 205.79 46.7501 205.35 46.5201 206.13C46.1501 207.39 45.6501 208.89 45.4101 211.4C45.3901 211.58 45.1501 211.84 44.8401 211.66C44.1601 211.26 39.9701 209.4 40.0101 208.55C40.0601 207.51 38.5101 200.27 42.0701 171.64C42.3201 169.24 42.6201 167.1 42.9101 165.3C43.3001 162.87 43.6801 161.05 43.9201 160.01C43.9701 159.66 44.0601 159.33 44.1601 159C44.7001 157.31 46.0901 155.49 47.6501 154.68C47.7601 154.62 52.2101 151.44 52.3301 151.39C62.9601 146.32 72.0801 147.53 72.0801 147.53C72.2401 147.51 72.4101 147.5 72.5801 147.49C76.2701 147.36 79.3801 150.25 79.5101 153.95C79.8601 163.78 77.8801 172.54 75.4901 176.36C75.3101 176.65 75.1401 176.96 74.9801 177.28Z" fill="#0EB891"/>
<path fill-rule="evenodd" clip-rule="evenodd" d="M50.3202 202.3C46.7002 201.52 39.8702 199.38 39.9202 196.17C39.9802 192.46 40.4102 186.53 41.1102 179.66C41.3802 177.03 41.6902 174.22 42.0702 171.22C42.2902 169.14 42.9302 164.35 43.3302 162.45L53.0202 162.81C53.0202 162.81 45.8902 176.24 49.7602 186.41C53.1802 195.4 55.9502 203.51 50.3202 202.3Z" fill="#1D8D74"/>
<path fill-rule="evenodd" clip-rule="evenodd" d="M79.5401 154.42C79.7401 163.89 77.8101 172.23 75.5001 175.94C75.3201 176.23 75.1501 176.54 74.9901 176.86C74.9901 176.86 72.2901 182.48 73.7301 192.68C75.1701 202.88 75.9301 206.82 75.0901 207.53C74.5001 208.03 71.2301 209.83 64.4901 211.16C66.8501 208.71 72.2101 202.57 71.7301 184.91C71.5701 179.01 65.1601 181.59 61.2701 179.48C57.3801 177.37 67.9501 177.28 74.3101 171.66C80.6701 166.04 77.4601 154.04 78.3501 153.7C79.2501 153.36 79.5401 154.42 79.5401 154.42Z" fill="#1D8D74"/>
<path fill-rule="evenodd" clip-rule="evenodd" d="M71.5901 146.07C69.5801 145.7 71.3901 149.59 74.4301 158.78C75.4701 161.91 76.0801 165.69 75.8501 170.21C75.7101 172.96 75.4301 175.09 75.0401 176.71C74.3201 177.75 73.2001 183.18 73.3701 184.37C75.4801 183.91 79.2201 181.03 80.7301 174.82C82.4401 167.82 82.4601 163.35 78.9401 154.03C76.9601 148.77 76.0901 147.43 74.9001 146.97C74.4401 146.79 72.8501 146.3 71.5901 146.07Z" fill="#633FB1"/>
<path fill-rule="evenodd" clip-rule="evenodd" d="M73.2 161.83C72.35 161.93 71.93 160.68 71.16 159.59C70.39 158.49 69.67 157.4 69.01 158.43C68.35 159.46 68.14 160.36 67.53 160.29C66.92 160.22 65.63 158.67 65.06 158.83C64.48 158.99 64.11 159.49 64.14 160.62C64.17 161.74 64.39 163.33 63.51 163.17C62.62 163.01 57.92 159.79 56.76 153.31C55.6 146.82 58.44 143.06 62.98 142.52C67.52 141.98 72.01 143.87 74.1 150.79C76.19 157.71 74.22 161.73 73.2 161.85V161.83Z" fill="#133660"/>
<path fill-rule="evenodd" clip-rule="evenodd" d="M68.7901 140.6C68.7901 140.6 68.7501 145.43 69.0601 148.12C69.3701 150.81 70.0401 151.42 69.8401 154.07C69.6401 156.72 68.2601 158.71 67.1201 158.75C65.9801 158.79 64.0501 157 62.7301 154.21C61.4101 151.42 61.4401 149.39 61.6701 147.5C62.4501 141.01 60.5301 137.55 59.6401 135.36L65.2601 138.25L68.8001 140.6H68.7901Z" fill="#CF7650"/>
<path fill-rule="evenodd" clip-rule="evenodd" d="M62.29 136.73C62.29 136.73 67.06 142.16 68.47 147.59C69.88 153.02 68.87 156.7 66.65 157.38C65.79 157.64 64.77 157.03 63.85 156.18C64.99 157.81 66.27 158.79 67.11 158.76C68.25 158.72 69.63 156.72 69.83 154.08C70.03 151.43 69.36 150.82 69.05 148.13C68.74 145.44 68.78 140.61 68.78 140.61L65.24 138.26L62.28 136.74L62.29 136.73Z" fill="#A3533E"/>
<path fill-rule="evenodd" clip-rule="evenodd" d="M46.18 154.44C46.18 154.44 46.24 154.97 46.71 154.95C47.4 154.92 48.47 154.68 49.51 156.05C51.51 158.67 53.44 165.03 52.47 174.46C50.65 192.18 44.68 188.22 43.47 186.05C43.47 186.05 42.28 185.68 42.88 187.53C43.47 189.38 46.3 191.18 49.19 191.68C52.08 192.18 57.52 187.66 58.66 181.13C59.8 174.6 60.58 166.89 58.54 160.29C56.9 154.97 54.66 150.95 53.49 150.43C52.32 149.91 47.2 152.87 46.7 153.31C45.96 153.97 46.18 154.43 46.18 154.43V154.44Z" fill="#633FB1"/>
<path d="M74.91 126.99C76.22 124.85 78.74 124.01 80.54 125.11C82.34 126.21 82.74 128.84 81.43 130.98C80.12 133.12 77.6 133.96 75.8 132.86C74 131.76 73.6 129.13 74.91 126.99Z" fill="#A65B32"/>
<path fill-rule="evenodd" clip-rule="evenodd" d="M77.99 129.71C77.96 129.83 77.84 129.91 77.71 129.88C77.59 129.85 77.51 129.73 77.54 129.61C77.54 129.61 77.91 127.99 78.7 127.07C78.99 126.73 79.33 126.49 79.72 126.42C80.11 126.35 80.56 126.45 81.07 126.83C81.17 126.91 81.19 127.05 81.11 127.15C81.03 127.25 80.89 127.27 80.79 127.19C80.42 126.91 80.1 126.81 79.81 126.87C79.52 126.92 79.27 127.12 79.05 127.37C78.33 128.22 77.99 129.71 77.99 129.71Z" fill="#80411F"/>
<path fill-rule="evenodd" clip-rule="evenodd" d="M79.3702 120.88C79.5802 121.54 80.4902 125.16 78.6902 130.7C76.7902 136.57 73.4402 140.21 71.5102 140.3C68.4902 140.44 58.9402 137.37 56.4202 127.99C57.6502 127.6 60.1402 126.34 61.4602 122.4C63.2602 117.04 64.9002 111.64 66.7402 112.46C66.7402 112.46 68.1602 111.05 71.8902 115.25C74.9502 118.69 78.2202 121.05 79.3802 120.89L79.3702 120.88Z" fill="#D17A4A"/>
<path fill-rule="evenodd" clip-rule="evenodd" d="M57.8901 127.3C59.1101 126.53 60.5501 125.09 61.4501 122.41C63.0701 117.6 64.5501 112.77 66.1701 112.41C66.1701 112.41 64.4001 113.26 63.2501 119.73C61.8101 127.82 60.6701 128.63 60.6701 128.63L57.9001 127.31L57.8901 127.3Z" fill="#A65B32"/>
<path d="M53.8101 132.81C55.5001 134.93 58.3101 135.51 60.1001 134.09C61.8901 132.67 61.9701 129.8 60.2801 127.68C58.5901 125.56 55.7801 124.99 53.9901 126.4C52.2001 127.82 52.1201 130.69 53.8101 132.81Z" fill="#D17A4A"/>
<path fill-rule="evenodd" clip-rule="evenodd" d="M54.2001 128.71C54.1301 128.82 53.9901 128.85 53.8801 128.78C53.7701 128.71 53.7401 128.57 53.8101 128.46C53.8101 128.46 54.3101 127.67 55.2501 127.41C55.8701 127.24 56.6801 127.28 57.6601 127.95C60.1101 129.62 59.4701 132.3 59.4701 132.3C59.4401 132.42 59.3201 132.5 59.1901 132.47C59.0701 132.44 58.9901 132.32 59.0201 132.19C59.0201 132.19 59.5801 129.81 57.4001 128.32C56.5701 127.76 55.8901 127.7 55.3701 127.84C54.6001 128.05 54.1901 128.7 54.1901 128.7L54.2001 128.71Z" fill="#80411F"/>
<path fill-rule="evenodd" clip-rule="evenodd" d="M61.8801 121.44C61.8801 121.44 63.1501 119.43 65.0101 119.58C66.8801 119.73 67.3301 121.1 67.0701 121.38C66.8001 121.66 66.0701 120.91 64.9101 120.87C63.7501 120.84 62.4301 121.58 62.1601 121.75C61.8901 121.92 61.7201 121.68 61.8801 121.43V121.44Z" fill="#12121F"/>
<path fill-rule="evenodd" clip-rule="evenodd" d="M71.8902 128.55C71.8502 127.49 71.6002 126.62 71.7402 126.74C71.8802 126.86 73.4202 127.84 73.2602 128.49C73.1002 129.14 72.1402 130.02 71.9702 130.16C71.8002 130.29 71.9302 129.61 71.8902 128.55Z" fill="#EB8F5D"/>
<path d="M75.05 132.12C75.05 133.18 73.14 136.16 70.79 136.16C68.44 136.16 65.26 133.6 65.26 132.54C65.26 131.48 67.59 131.9 69.94 131.9C72.29 131.9 75.05 131.05 75.05 132.11V132.12Z" fill="#12121F"/>
<path fill-rule="evenodd" clip-rule="evenodd" d="M65.9001 133.39C66.4501 132.85 67.8401 131.96 70.5801 132.52C72.6201 132.94 73.4401 133.78 73.7601 134.48C73.0101 135.17 71.9701 135.72 70.5901 135.73C68.1301 135.75 66.5501 134.45 65.9101 133.4L65.9001 133.39Z" fill="#CF4950"/>
<path fill-rule="evenodd" clip-rule="evenodd" d="M74.34 131.47C74.2 131.86 73.8 132.55 72.58 132.89C70.97 133.33 67.69 133.22 66.51 131.9C67.37 131.86 68.8 132.02 70.73 131.92C72.06 131.85 73.47 131.54 74.35 131.48L74.34 131.47Z" fill="#EFFFFB"/>
<path fill-rule="evenodd" clip-rule="evenodd" d="M65.8301 132.03C65.8301 132.03 67.0501 131.44 70.3001 131.34C73.3201 131.24 74.3701 131.23 75.0401 131.52C74.4501 131.3 72.5301 131.82 70.7301 131.92C68.1501 132.06 66.4601 131.72 65.8401 132.04L65.8301 132.03Z" fill="#A65B32"/>
<path fill-rule="evenodd" clip-rule="evenodd" d="M74.79 133.13C74.79 133.13 74.55 136.22 70.92 136.53C68.11 136.77 66.7 134.84 66.03 133.84C65.74 133.41 65.75 133.11 65.75 133.11C66.27 134.19 67.9 135.74 70.59 135.72C72.81 135.7 74.17 134.3 74.8 133.13H74.79Z" fill="#A65B32"/>
<path fill-rule="evenodd" clip-rule="evenodd" d="M73.8802 118.68C75.3702 118.5 76.6102 119.44 77.1402 119.87C77.3802 120.06 77.3902 120.52 76.9302 120.38C76.5702 120.26 75.8402 119.44 74.1302 120.05C72.7602 120.54 72.3502 120.52 72.1802 120.13C72.0102 119.74 72.5402 118.84 73.8702 118.68H73.8802Z" fill="#12121F"/>
<path fill-rule="evenodd" clip-rule="evenodd" d="M67.8201 125.62C67.9001 124.98 66.7201 124.17 65.6701 123.95C64.6101 123.73 63.5401 124.2 63.0701 124.81C62.6001 125.43 62.2501 126.29 63.6001 127.16C64.8401 127.96 66.0001 127.52 66.7201 127.07C67.4501 126.62 67.7801 125.95 67.8201 125.61V125.62Z" fill="#EFFFFB"/>
<path fill-rule="evenodd" clip-rule="evenodd" d="M62.8301 126.45C62.6201 126.53 62.0201 125.88 61.8001 125.49C61.5801 125.1 61.4301 124.63 61.7501 124.61C62.0701 124.6 62.3501 124.85 62.3501 124.85C62.3501 124.85 63.3101 123.47 65.0601 123.47C66.8101 123.47 67.9901 125.08 68.1001 125.28C68.2001 125.48 68.1001 125.85 67.7301 125.55C67.3601 125.25 66.6401 123.99 64.8601 124.12C62.6801 124.28 63.0401 126.37 62.8301 126.45Z" fill="#12121F"/>
<path fill-rule="evenodd" clip-rule="evenodd" d="M65.84 123.91C65.01 124.16 64.58 125.83 65.24 126.56C65.9 127.29 67.54 127.34 67.85 125.63C68.14 124.02 66.68 123.66 65.84 123.91Z" fill="#12121F"/>
<path fill-rule="evenodd" clip-rule="evenodd" d="M76.5 122.88C77.44 123.26 77.69 124.31 77.6 124.65C77.51 124.99 77.12 125.8 76.23 126.22C75.34 126.64 74.27 126.65 73.24 125.96C72.21 125.27 72.73 124.08 73.36 123.45C73.82 122.99 74.67 122.14 76.5 122.88Z" fill="#EFFFFB" stroke="white" stroke-width="0.25" stroke-linecap="round" stroke-linejoin="round"/>
<path fill-rule="evenodd" clip-rule="evenodd" d="M72.5 124.75C72.45 125.19 72.77 125.51 72.92 124.91C73.08 124.23 74.19 122.7 75.68 122.89C77.17 123.08 77.35 124.41 77.43 124.52C77.51 124.63 77.71 124.8 78.04 124.52C78.38 124.23 78.83 123.76 78.66 123.6C78.49 123.44 77.93 123.68 77.93 123.68C77.93 123.68 77 122.09 75.37 122.23C73.27 122.41 72.56 124.2 72.49 124.76L72.5 124.75Z" fill="#12121F"/>
<path fill-rule="evenodd" clip-rule="evenodd" d="M76.2901 122.78C77.4201 122.7 78.1201 123.89 77.4001 125.29C76.6801 126.68 74.7301 125.64 74.8301 124.45C74.9301 123.3 75.4801 122.84 76.2901 122.78Z" fill="#12121F"/>
<path fill-rule="evenodd" clip-rule="evenodd" d="M80.0701 176.9C80.0701 176.9 71.2701 184.5 66.6201 188.45C63.9501 190.72 61.6701 192.98 58.9201 194.25C55.6801 195.75 53.3301 194.08 52.3501 192.04C51.4201 190.1 51.8401 186.74 54.8701 185.14C63.5601 179.59 73.6901 172.9 77.5601 171.27C81.4001 169.65 83.3101 174.49 80.0601 176.9H80.0701Z" fill="#CF7650"/>
<path d="M73.4701 169.83C73.3701 170.5 73.4101 172.6 73.4401 173.57C73.4701 174.1 73.7301 175.33 75.0001 175.2C76.0501 175.09 76.9501 174.09 76.8901 172.37C76.8501 171 76.6901 169.95 76.6801 169.48C77.0001 169.08 78.8001 168.09 79.0301 167.05C79.3101 165.74 78.2601 165.63 77.6901 166.03C77.2701 166.32 75.6201 166.68 75.0001 167.48C74.2601 168.42 73.5401 169.38 73.4701 169.83Z" fill="#C86D46"/>
<path fill-rule="evenodd" clip-rule="evenodd" d="M85.72 173.43C86.1 172.89 86.23 172.05 87.66 170.22C88.06 169.71 89.08 168.2 88.42 167.78C87.77 167.36 87.01 168.01 86.16 168.83C84.65 170.28 84.68 170.35 84.27 170.77C84.4 170.34 85.27 169.22 87.14 167.13C89 165.04 89.63 164 88.87 163.37C88.3 162.89 87.46 163.71 87.46 163.71C87.46 163.71 88.11 162.16 87.46 161.72C86.81 161.28 85.49 162.12 82.8 164.93C80.11 167.75 80.17 168.08 80.05 168.14C80.34 167.66 80.86 166.93 81.92 165.25C83.37 162.96 84.32 162.08 83.61 161.23C82.43 160.65 81.16 161.72 79.35 164.46C78.21 166.36 76.94 168.13 76.94 168.13C76.94 168.13 76.02 169.33 74.8 171.14C73.52 173.05 72.29 174.18 74.13 176.63C75.58 178.33 78.38 178.87 80.68 177.53C83.97 176.36 85.58 173.65 85.73 173.43H85.72Z" fill="#CF7650"/>
<path d="M82.8 164.92C85.49 162.1 86.81 161.26 87.46 161.71C88.11 162.15 87.46 163.7 87.46 163.7C87.46 163.7 88.3 162.89 88.87 163.36C89.63 163.99 89.01 165.03 87.14 167.12C85.28 169.21 84.4 170.33 84.27 170.76C84.68 170.35 84.65 170.27 86.16 168.83C87.01 168.01 87.76 167.36 88.42 167.78C89.07 168.2 88.05 169.71 87.66 170.22C86.23 172.05 86.1 172.88 85.72 173.43C85.57 173.65 83.96 176.37 80.67 177.53M81.91 165.25C83.36 162.96 84.31 162.08 83.6 161.23C82.85 160.86 82.06 161.16 81.11 162.15M74.79 171.14C76.01 169.33 76.93 168.13 76.93 168.13C76.93 168.13 77.27 167.65 77.76 166.92M87.57 163.36C86.52 164.51 83.7 167.74 82.57 169.15M82.49 164.57C81.7 165.88 81.48 166.36 80.34 167.78" stroke="#A3533E" stroke-linecap="round"/>
<path fill-rule="evenodd" clip-rule="evenodd" d="M54.9601 159.41C54.6801 158.6 54.2601 157.87 53.7201 157.24C52.3001 155.55 50.0901 154.56 47.7301 154.8C44.1601 155.15 41.3901 158.12 41.3901 161.64C41.3901 161.64 41.0001 164.25 41.8701 170.44C42.7401 176.63 44.3801 181.04 44.3801 181.04C44.3801 181.04 44.8701 182.86 46.2401 182.8C47.6201 182.75 51.1801 181.46 54.9601 180.65C58.3301 179.93 59.6401 178.03 59.3701 176.73C59.2301 176.05 58.0601 171.64 56.8001 167.48C56.0501 164.99 55.5801 162.47 55.3001 160.95C55.2501 160.5 55.1601 160.07 55.0301 159.65C55.0101 159.56 54.9801 159.48 54.9501 159.41H54.9601Z" fill="#0EB891"/>
<path fill-rule="evenodd" clip-rule="evenodd" d="M56.0101 180.02V180.42C56.0101 180.42 55.3701 181.45 49.2801 182.31C43.8201 183.08 43.7301 182.16 43.3501 181.78L43.4801 181.24C43.4801 181.24 45.8801 178.97 49.5601 178.62C53.2401 178.27 55.4901 179.22 56.0001 180.02H56.0101Z" fill="#0B1017"/>
<path fill-rule="evenodd" clip-rule="evenodd" d="M56.0401 180.41C56.4001 180.18 56.3401 178.34 56.2101 178.03C56.0901 177.72 55.8101 177.4 55.4701 177.2C55.1301 177.01 53.2701 175.73 49.4901 176.22C45.7101 176.71 43.1501 178.77 42.9501 179.3C42.7501 179.83 42.7501 179.68 42.8501 180.18C42.9501 180.68 43.1101 181.6 43.5001 181.91C43.8901 182.23 43.6501 181.53 44.4001 180.98C45.1501 180.42 46.8001 179.2 49.5401 178.9C52.2801 178.6 55.3301 179.24 55.5101 180.12C55.5801 180.45 55.8301 180.55 56.0401 180.42V180.41Z" fill="#133660"/>
<path fill-rule="evenodd" clip-rule="evenodd" d="M45.4301 181.11C45.2601 180.74 47.4201 178.9 49.5601 178.07C51.9401 177.14 54.9001 177.43 55.3201 178.33C57.0801 182.18 59.3101 186.54 59.5001 187.19C59.7601 188.11 61.0301 193.37 57.0201 195.03C52.8901 196.75 50.0501 190.79 48.9901 188.71C48.2001 187.15 46.4801 183.4 45.4301 181.11Z" fill="#CF7650"/>
<path fill-rule="evenodd" clip-rule="evenodd" d="M46.73 183.94C47.15 182.86 48.59 181.21 50.39 180.46C54.18 178.9 57.21 182.34 57.21 182.34C56.55 180.96 55.88 179.54 55.32 178.32C54.91 177.42 51.94 177.13 49.56 178.06C47.42 178.9 45.26 180.74 45.42 181.1C45.79 181.91 46.24 182.92 46.72 183.94H46.73Z" fill="#A3533E"/>
<path fill-rule="evenodd" clip-rule="evenodd" d="M55.34 178.38C55.29 178.28 55.16 178.25 55.04 178.32C54.92 178.39 54.87 178.52 54.91 178.62L57.75 184.65C57.8 184.75 57.93 184.78 58.05 184.71C58.17 184.64 58.22 184.5 58.18 184.4L55.34 178.37V178.38Z" fill="#A3533E"/>
<path fill-rule="evenodd" clip-rule="evenodd" d="M176.42 300.14C176.42 300.14 177.57 301.12 177.65 302.32C177.73 303.52 177.63 305.03 176.55 305.87C175.47 306.72 172.84 308.68 163.06 308.69C153.28 308.7 147.87 308.38 145.76 307.21C145.76 307.21 144.16 304.53 144.21 303.86C144.26 303.19 144.55 302.58 147.05 301.36C149.55 300.14 158.1 296.91 164.9 297.01C171.7 297.11 175.39 299.31 176.42 300.15V300.14Z" fill="#D8CEEC"/>
<path fill-rule="evenodd" clip-rule="evenodd" d="M172.16 298.74C172.16 298.74 179.33 301.2 176.18 303.78C173.02 306.36 168.18 306.53 162.44 306.4C156.7 306.27 139.45 305.93 146.69 302.22C153.93 298.5 166.02 296.7 172.16 298.75V298.74Z" fill="#E1FFFD"/>
<path fill-rule="evenodd" clip-rule="evenodd" d="M172.79 281.01C173.82 285.18 174.76 290.55 176.98 297.25C177.72 299.49 176.02 304.12 168.11 303.82C159.12 303.48 158.08 302.99 153.16 303.39C148.24 303.79 145.17 304.18 145.32 302.05C145.47 299.91 148.48 300.77 152.29 298.39C155.96 296.1 159.69 296.54 164.73 293.71L162.41 285.13C164.53 285.63 170.03 283.71 172.8 281.01H172.79Z" fill="#DF8260"/>
<path fill-rule="evenodd" clip-rule="evenodd" d="M163.55 289.38L162.4 285.13C164.52 285.63 170.02 283.71 172.79 281.01C172.96 281.68 173.12 282.38 173.29 283.12C170.12 287.74 165.83 289.02 163.55 289.37V289.38Z" fill="#D15844"/>
<path d="M149.45 300.54C149.45 300.54 145.9 300.01 145.31 302.05" stroke="#D15844" stroke-width="1.13" stroke-linecap="round" stroke-linejoin="round"/>
<path fill-rule="evenodd" clip-rule="evenodd" d="M173.2 293.73C173.89 294.1 174.16 295.6 172.92 297C171.6 298.5 167.59 300.18 168.16 299.36C168.73 298.54 172.51 293.37 173.2 293.73Z" fill="#D15844"/>
<path fill-rule="evenodd" clip-rule="evenodd" d="M154.35 297.26C154.35 297.26 152.12 297.1 150.97 298.31L151.02 298.87L151.85 298.66C151.85 298.66 153.72 297.54 154.35 297.27V297.26Z" fill="#769C9B"/>
<path fill-rule="evenodd" clip-rule="evenodd" d="M147.86 300.19C147.86 300.19 147.62 299.73 148.23 299.34C148.84 298.96 148.98 299.29 150.02 298.6C151.06 297.91 154.17 298.28 158.05 300.14C161.93 302.01 163.89 304.88 163.89 304.88C163.89 304.88 164.13 305.25 163.6 305.29C163.07 305.33 161.05 305.21 160.72 305.19C160.4 305.17 160.3 305.06 159.81 304.51C159.32 303.96 158.75 302.52 154.45 301.31C150.15 300.1 147.85 300.18 147.85 300.18L147.86 300.19Z" fill="#9FBFBE"/>
<path d="M150.02 298.6C150.02 298.6 150.81 297.96 153.23 298.46C155.66 298.96 159.44 300.32 162.4 303.19" stroke="#E1FFFD" stroke-width="1.13" stroke-linecap="round" stroke-linejoin="round"/>
<path fill-rule="evenodd" clip-rule="evenodd" d="M163.03 187.52C163.03 187.52 151.27 216.88 147.85 225.41C144.43 233.94 144.12 239.18 146.91 246.15C149.7 253.12 161.51 285.08 161.51 285.08C161.51 285.08 171.16 287.39 176.59 277.16C176.59 277.16 161.99 239.55 162.07 237.29C162.15 235.03 168.76 216.29 176.07 210.05C183.38 203.81 184.26 195.79 178.76 192.61C173.26 189.44 163.02 187.52 163.02 187.52H163.03Z" fill="#133660"/>
<path fill-rule="evenodd" clip-rule="evenodd" d="M163.18 233.2C165.01 226.75 170.55 212.21 168.29 204.6C165.34 194.65 154.23 209.46 154.23 209.46L163.02 187.52C163.02 187.52 173.26 189.44 178.76 192.61C184.26 195.78 183.38 203.81 176.07 210.05C170.52 214.79 165.37 226.74 163.18 233.2ZM153.4 263.26C154.31 263.83 155.31 263.95 156.38 263.4C161.3 260.87 162.08 243.44 162.2 238.02C163.63 243.76 176.59 277.16 176.59 277.16C171.16 287.39 161.51 285.08 161.51 285.08C161.51 285.08 157.36 273.86 153.4 263.26Z" fill="#0C2748"/>
<path fill-rule="evenodd" clip-rule="evenodd" d="M159.73 236.63C159.89 235.07 155.75 228.81 153.98 229.75C152.21 230.69 157.79 234.55 157.09 235.41C156.39 236.27 151.08 237.43 152.02 238.99C152.96 240.55 159.57 238.2 159.73 236.63Z" fill="#031323"/>
<path fill-rule="evenodd" clip-rule="evenodd" d="M155.74 280.36C155.23 283.31 157.57 287.38 159.26 289.65C163.38 295.19 168.21 295.15 168.3 293C168.42 290.27 166.41 281.9 164.07 278.76C161.73 275.62 156.66 275.05 155.74 280.37V280.36Z" fill="#0C2748"/>
<path fill-rule="evenodd" clip-rule="evenodd" d="M168.78 288.47C168.78 288.47 162.03 311.29 159.07 310.95C157.65 310.79 153.76 302.38 148.39 297.03C142.53 291.19 136.04 288.5 135.5 288C134.47 287.06 140.76 282.77 145.73 286.49C150.7 290.21 156.94 294.34 156.94 294.34C156.94 294.34 162.01 275.93 162.74 274.12C163.47 272.3 169.06 275.31 168.77 288.47H168.78Z" fill="#EEB393"/>
<path d="M159.58 284.87L156.94 294.34" stroke="#DF8260" stroke-width="1.13" stroke-linecap="round" stroke-linejoin="round"/>
<path d="M157.94 295.26C157.94 295.26 156.55 293.84 154.98 293.03" stroke="#DF8260" stroke-width="1.13" stroke-linecap="round" stroke-linejoin="round"/>
<path fill-rule="evenodd" clip-rule="evenodd" d="M159.89 283.76C161.15 279.3 162.4 274.95 162.74 274.11C163.47 272.29 169.06 275.3 168.77 288.46C168.77 288.46 167.72 292.02 166.26 296.31C165.1 286.39 161.82 284.18 159.88 283.76H159.89Z" fill="#DF8260"/>
<path fill-rule="evenodd" clip-rule="evenodd" d="M131.73 285.83C131.73 285.83 132.88 283.92 134.28 284.23C135.67 284.53 143.81 287.18 153.04 295.73C153.04 295.73 151.46 290.22 146.88 287.34C146.88 287.34 146.63 285.22 149.27 287.34C151.91 289.46 155.97 293.84 156.81 300.16C156.81 300.16 161.91 306.02 161.99 309.54C161.99 309.54 161.49 310.96 160.58 312.22C159.67 313.48 154.91 313.84 151.62 308.69C148.33 303.53 147.41 302.19 142.19 299.4C136.98 296.61 130.2 289.72 131.73 285.83Z" fill="#D8CEEC"/>
<path d="M149.26 287.34C149.26 287.34 155.74 291.8 156.8 300.16" stroke="#E1FFFD" stroke-width="1.13" stroke-linecap="round" stroke-linejoin="round"/>
<path d="M131.73 285.83C132.06 284.98 133.64 284.23 133.64 284.23C133.64 284.23 141.9 285.53 150.11 293.18C158.32 300.82 161.66 307.9 161.66 307.9" stroke="#E1FFFD" stroke-width="1.13" stroke-linecap="round" stroke-linejoin="round"/>
<path d="M132.3 287.34C132.3 287.34 132.09 286.33 132.93 286.49C135.65 287 142.76 289.76 148.32 295.16C155.61 302.24 162.33 310.84 159.58 312.25" stroke="#E1FFFD" stroke-width="1.13" stroke-linecap="round" stroke-linejoin="round"/>
<path fill-rule="evenodd" clip-rule="evenodd" d="M193.38 181.58C193.38 181.58 196.4 191.17 192.72 206.56C189.04 221.95 184.49 228.81 181.41 244.72C178.33 260.63 168.3 293 168.3 293C168.3 293 166.16 283.24 161.62 280.13C157.08 277.02 155.74 280.37 155.74 280.37C155.74 280.37 161.02 256.36 164.44 242.2C167.86 228.03 173.57 204.81 170.48 200.69C167.39 196.57 162.26 196.3 163.4 191.67C164.55 187.05 193.38 181.58 193.38 181.58Z" fill="#133660"/>
<path fill-rule="evenodd" clip-rule="evenodd" d="M163.67 198.3C161.27 194.66 162.55 195.07 163.4 191.67C164.55 187.05 193.37 181.58 193.37 181.58C193.37 181.58 196.39 191.17 192.71 206.56C189.03 221.95 184.48 228.81 181.4 244.72C183.6 225.93 187.2 217.63 188.28 208.43C189.37 199.24 180.88 198.49 172.29 201.5C169.23 202.57 165.79 199.78 163.67 198.3Z" fill="#0C2748"/>
<path fill-rule="evenodd" clip-rule="evenodd" d="M155.36 139.27C155.38 139.15 155.41 139.03 155.44 138.9C156 136.75 157.71 134.97 160.03 134.46C163.32 133.73 166.58 135.81 167.31 139.1C167.45 139.76 167.49 140.41 167.42 141.05C167.41 141.15 167.4 141.25 167.38 141.34C167.09 143.6 165.23 158.13 165.1 159.78C164.95 161.57 163.52 162.67 163.52 162.67C156.29 159.69 152 159.75 152 159.75C151.75 159.63 150.67 159.39 151.18 157.47C151.65 155.72 154.81 141.72 155.36 139.27Z" fill="#0EB891"/>
<path fill-rule="evenodd" clip-rule="evenodd" d="M152.07 153.72C152.07 153.72 152.28 157.08 154.19 157.81C157.11 158.91 157.48 141.91 157.48 141.91C157.48 141.91 161.61 146.67 165.42 157.03C165.25 158.4 165.14 159.41 165.11 159.78C164.96 161.57 163.53 162.67 163.53 162.67C156.3 159.69 152.01 159.75 152.01 159.75C151.76 159.63 150.68 159.39 151.19 157.47C151.32 156.99 151.65 155.57 152.08 153.72H152.07Z" fill="#1D8D74"/>
<path fill-rule="evenodd" clip-rule="evenodd" d="M151.71 162.51C151.71 162.51 152.58 163.95 156.84 164.39C161.1 164.83 162.52 165.78 162.99 164.86C163.47 163.95 159.97 163 156.71 162.37C153.45 161.74 151.53 161.72 151.71 162.51Z" fill="#080C0F"/>
<path fill-rule="evenodd" clip-rule="evenodd" d="M162.58 164.7L160.22 175.87C159.61 178.76 156.77 180.61 153.88 180C150.99 179.39 149.14 176.54 149.75 173.65L152.18 162.17C152.2 162.09 152.22 162.02 152.24 161.95C152.63 161.8 153.58 161.73 155.78 162.12C159.02 162.69 161.92 164.51 162.15 164.68C162.31 164.79 162.46 164.76 162.59 164.7H162.58Z" fill="#EEB393"/>
<path fill-rule="evenodd" clip-rule="evenodd" d="M151.74 165.33L152.34 162.51C152.36 162.43 152.38 162.36 152.4 162.29C152.79 162.14 153.73 162.07 155.94 162.46C159.18 163.03 162.08 164.85 162.3 165.02C162.46 165.14 162.61 165.1 162.74 165.04L161.31 171.78C160.33 169.35 158.27 166.26 155.78 165.02C154.07 164.17 152.68 164.67 151.73 165.34L151.74 165.33Z" fill="#DF8260"/>
<path fill-rule="evenodd" clip-rule="evenodd" d="M151.69 162.28C151.69 162.28 151.94 159.89 151.98 159.67C152.02 159.46 152.2 159.3 152.69 159.28C153.18 159.26 154.52 159.11 158.07 159.91C161.62 160.71 163.34 162.15 163.5 162.62C163.67 163.08 163.09 164.87 162.92 164.95C162.74 165.03 162.53 165.18 162.3 165.01C162.07 164.84 159.18 163.02 155.93 162.45C152.69 161.88 152.17 162.3 152.13 162.5C152.09 162.7 151.62 162.68 151.68 162.28H151.69Z" fill="#202C3A"/>
<path fill-rule="evenodd" clip-rule="evenodd" d="M160.25 134.07L185.11 130.78C185.11 130.78 190 130.31 191.92 134.17C193.52 137.38 193.65 143.18 193.86 145.61C194.27 150.39 195.23 199.67 195.23 199.67C195.23 199.67 195.09 200.66 194.69 201.46C194.28 202.26 194.08 202.52 194.03 202.41C193.98 202.3 193.11 194.24 191.2 189.72C191.2 189.72 191.26 192.86 191.25 196.67C191.25 200.48 190.32 202.62 189.96 202.41C189.6 202.2 191.1 198.38 184.31 196.75C177.52 195.12 173.34 201 169.82 200.7C166.29 200.4 164.51 196.35 161.31 195.49C158.1 194.63 156.87 195.17 157.02 194.96C157.17 194.75 160.71 186.97 161.14 186.25C162.36 184.21 162 182.21 161.92 181.56C161.84 180.91 160.04 172.91 157.91 167.23C155.78 161.55 155.81 159.26 156.06 152.69C156.31 146.13 156.29 142.26 156.29 142.26C156.29 142.26 155.78 134.66 160.24 134.07H160.25Z" fill="#0EB891"/>
<path d="M156.28 141.37L155.99 159.59" stroke="#0D5747" stroke-width="1.13" stroke-linecap="round" stroke-linejoin="round"/>
<path fill-rule="evenodd" clip-rule="evenodd" d="M157.62 194.98C157.15 195 156.96 195.04 157.03 194.96C157.18 194.75 160.21 186.85 160.49 186.06C161.39 183.55 161.36 182.02 161.27 181.37C161.18 180.72 160.06 172.9 157.92 167.23C157.42 165.9 157.04 164.75 156.75 163.69C157.43 165.84 159.8 170.9 167.6 173.61C177.67 177.12 187.34 178.61 179.28 182.08C171.4 185.47 160.39 190.56 157.62 194.99V194.98Z" fill="#1D8D74"/>
<path fill-rule="evenodd" clip-rule="evenodd" d="M193.41 147.01C193.85 152.86 194.16 160.29 193.25 163.56C191.65 169.36 188.65 167.16 186.47 169.07C184.3 170.98 183.89 174.54 180.3 172.55C176.71 170.55 191.2 142.79 191.2 142.79L192.27 139.94C192.6 141.08 192.75 142.11 192.92 143.34L193.4 147L193.41 147.01Z" fill="#1D8D74"/>
<path fill-rule="evenodd" clip-rule="evenodd" d="M161.39 133.92L177.81 131.75C179.21 132.9 180.77 134.59 181.8 136.93C184.04 142.01 182 148.03 180.42 148.47C178.84 148.91 177.56 144.5 176.04 142.72C174.52 140.95 174.79 149.56 172.22 150.91C169.65 152.26 167.57 146.03 166.34 144.98C165.11 143.93 164.57 148.09 163.55 148.77C162.53 149.45 161.04 147.92 160.08 142.77C159.37 139 160.66 135.51 161.39 133.92Z" fill="#1D8D74"/>
<path fill-rule="evenodd" clip-rule="evenodd" d="M154.83 127.37C154.83 127.37 155.55 134.15 162.66 136.31C169.77 138.47 174.02 132.09 174.02 132.09C174.02 132.09 173.1 134 174.98 134.12C176.87 134.24 186.89 130.62 190.88 134.08C194.87 137.54 184.11 116.68 184.07 110.79C184.03 104.48 181.69 100.78 174.71 98.89C167.73 97 162.97 98.9 161.98 102C161.98 102 159.39 99.41 157.07 105.95C153.9 114.91 151.26 115.34 151.03 120.31C150.77 125.74 154.22 130.37 154.82 127.38L154.83 127.37Z" fill="#080C0F"/>
<path d="M182.25 158.83C182.63 159.48 183.44 161.67 183.8 162.68C183.74 163.4 183.8 164.32 182.6 164.57C181.4 164.82 180.27 164.14 179.64 162.35C179.13 160.91 178.63 159.58 178.45 159.09C177.94 158.8 176.74 157.97 176.07 156.97C175.23 155.72 176.12 154.61 177.13 155.42C178.14 156.22 181.78 158.01 182.26 158.83H182.25Z" fill="#EEB393"/>
<path fill-rule="evenodd" clip-rule="evenodd" d="M177.31 156.37C176.97 156.57 176.55 156.75 176.24 156.79C174.53 157.02 168.74 157.23 164.62 150.39C159.74 142.28 168.88 140.66 171.09 140.8C171.09 140.8 171.81 141.09 170.97 141.26C170.12 141.43 166.21 141.25 165.99 143.95C165.77 146.6 168.04 154.47 179.69 154.53C179.95 154.53 180.05 154.77 179.74 154.95L177.31 156.36V156.37Z" fill="#F16D03"/>
<path fill-rule="evenodd" clip-rule="evenodd" d="M179.06 155.35C179.06 155.35 178.6 154.82 178.84 153.93C179.14 152.82 179.05 151.37 177.68 147.19C175.77 141.32 174.89 136.88 177.19 135.5C178.84 134.51 180.75 134.43 181.42 134.51C181.68 134.54 181.77 134.78 181.57 134.81C180.85 134.93 179.79 134.49 179.28 135.75C178.78 137.01 178.28 138.43 180.42 144.82C182.19 150.13 181.78 154.19 181.28 155.05C181.13 155.31 180.93 155.62 180.54 155.7C179.97 155.81 179.05 155.34 179.05 155.34L179.06 155.35Z" fill="#FF821E"/>
<path fill-rule="evenodd" clip-rule="evenodd" d="M178.75 155.11C178.72 155.2 178.63 155.24 178.54 155.22C178.45 155.19 178.41 155.1 178.44 155.01C178.44 155.01 179.26 152.52 177.53 147.25C176.47 144.02 175.64 140.96 175.66 138.72C175.67 137.16 176.1 135.99 177.1 135.38C177.18 135.33 177.28 135.36 177.33 135.44C177.38 135.52 177.35 135.62 177.27 135.67C176.36 136.22 176.01 137.31 175.99 138.73C175.97 140.95 176.8 143.97 177.84 147.16C179.61 152.57 178.75 155.13 178.75 155.13V155.11Z" fill="#FFA1B0"/>
<path fill-rule="evenodd" clip-rule="evenodd" d="M171.35 128.15C167.51 129.14 163.63 130.03 161.22 138.35C158.81 146.67 160.78 148.32 161.25 148.22C161.72 148.12 161.93 147.77 162.7 146.65C163.47 145.52 165.09 143.21 165.91 143.48C166.73 143.76 167.05 146.01 168.65 148.51C170.25 151.01 171.39 151.77 173.5 148.97C175.61 146.17 176.11 142.96 176.91 142.92C177.71 142.87 179.24 146.21 179.62 147.48C180 148.75 180.46 148.64 180.83 148.18C181.2 147.72 183.47 141.48 181.82 134.98C180.18 128.48 175.38 127.12 171.35 128.16V128.15Z" fill="#133660"/>
<path fill-rule="evenodd" clip-rule="evenodd" d="M166.89 139.93L165.3 124.25L173.71 123.4L175.3 139.14C175.58 143.33 172.86 149.1 171.26 149.12C169.66 149.14 167.17 142.52 166.89 139.99C166.89 139.97 166.89 139.95 166.89 139.93Z" fill="#EEB393"/>
<path fill-rule="evenodd" clip-rule="evenodd" d="M175.12 141.94C174.49 145.51 172.53 149.1 171.26 149.11C169.66 149.13 167.17 142.51 166.89 139.98C166.89 139.96 166.89 139.94 166.89 139.92L165.3 124.24L173.08 123.45C172.46 125.57 170.93 130.66 169.07 136.01C166.94 142.15 171.25 146.14 172.22 146.11C172.92 146.1 173.75 145.82 175.11 141.92L175.12 141.94Z" fill="#DF8260"/>
<path fill-rule="evenodd" clip-rule="evenodd" d="M190.59 163.78C190.59 163.78 191.15 164.85 198.33 162.94C205.51 161.04 204.81 160.65 204.79 160.44C204.76 160.23 204.37 159.87 204.37 159.87C204.37 159.87 198.37 159 197.91 159.18C197.45 159.36 192.29 161.08 192.29 161.08C192.29 161.08 190.38 162.2 190.59 163.77V163.78Z" fill="#080C0F"/>
<path fill-rule="evenodd" clip-rule="evenodd" d="M182.58 140C181.91 137.41 182.81 134.55 185.08 132.85C188.08 130.6 192.35 131.2 194.6 134.21C194.92 134.64 195.19 135.1 195.4 135.58C195.4 135.58 203.84 154.47 203.88 155.88C203.92 157.29 203.31 157.96 203.31 157.96L190.32 160.93C190.32 160.93 189.47 161.16 188.39 159.96C187.31 158.76 182.59 140.02 182.59 140.02L182.58 140Z" fill="#0EB891"/>
<path d="M183.26 142.63C183.26 142.63 187.11 157.85 188.36 159.91C188.8 160.63 189.53 160.81 189.53 160.81" stroke="#1D8D74" stroke-width="1.13" stroke-linecap="round" stroke-linejoin="round"/>
<path fill-rule="evenodd" clip-rule="evenodd" d="M190.95 163.35C190.95 163.35 190.98 163.68 190.8 163.75C190.62 163.82 190.4 163.81 190.3 163.35C190.2 162.89 189.57 161.05 189.54 160.92C189.51 160.79 189.46 160.55 189.91 160.25C190.37 159.95 192.49 158.48 195.48 157.72C198.47 156.96 202.25 157.25 203.04 157.45C203.83 157.65 203.88 157.7 204.03 158.09C204.18 158.48 204.97 160.37 204.76 160.65C204.54 160.93 204.16 160.93 204 160.54C203.84 160.16 202.66 160.2 201.32 159.96C199.97 159.72 196.48 159.58 194.09 160.9C191.71 162.22 190.95 163.35 190.95 163.35Z" fill="#133660"/>
<path fill-rule="evenodd" clip-rule="evenodd" d="M201.7 160.46L205.53 174.97C206.38 177.9 204.68 180.97 201.75 181.82C198.82 182.67 195.75 180.97 194.9 178.04L191.19 163.95V163.91C191.19 163.91 191.9 162.75 194.23 161.34C196.56 159.93 200.04 160.23 201.39 160.42C201.5 160.43 201.6 160.45 201.7 160.45V160.46Z" fill="#EEB393"/>
<path fill-rule="evenodd" clip-rule="evenodd" d="M191.66 165.57L191.19 163.96V163.92C191.19 163.92 191.9 162.76 194.23 161.35C196.56 159.94 200.03 160.24 201.39 160.43C201.49 160.44 201.6 160.46 201.7 160.46L203.49 166.65C202.06 165.36 200.05 163.88 197.95 163.41C193.98 162.51 191.66 165.57 191.66 165.57Z" fill="#DF8260"/>
<path fill-rule="evenodd" clip-rule="evenodd" d="M147.59 177.3C142.14 174.2 138.76 172.54 137.82 169.18C137.58 168.31 137.64 167.36 137.71 166.19C138.04 160.53 141.72 157.62 145.44 161.48C149.16 165.34 151.27 164.31 153.78 169.22C156.29 174.13 157.6 183.02 147.59 177.31V177.3Z" fill="#EEB393"/>
<path fill-rule="evenodd" clip-rule="evenodd" d="M152.08 172.53C152.08 172.53 150.94 166.64 148.77 162.46C146.6 158.28 146.2 156.39 145.28 158.09C144.36 159.79 144.9 162.07 146.44 164.55C146.44 164.55 145.29 173.7 152.07 172.53H152.08Z" fill="#DF8260"/>
<path fill-rule="evenodd" clip-rule="evenodd" d="M137.5 166.09C137.5 165.97 137.5 165.85 137.51 165.73C137.68 160.61 140.64 158.04 143.77 161.61C146.9 165.18 148.62 164.28 150.77 168.78C151.3 169.88 151.77 171.19 152.06 172.47C150.1 173.42 146.62 172.06 143.38 167.31C142.33 165.76 139.21 165.97 137.5 166.09Z" fill="#DF8260"/>
<path d="M133.15 149.11L170.65 145.34L174.47 160.3L173.54 174.26L157.19 175.05L140.85 175.84C140.85 175.84 140.77 163.95 139.47 158.7C138.22 153.64 133.14 149.11 133.14 149.11H133.15Z" fill="white"/>
<path d="M141.4 175.25C141.4 174.92 141.39 174.45 141.37 173.87C141.34 172.67 141.29 171.01 141.2 169.19C141.02 165.57 140.67 161.23 140.01 158.55C139.36 155.9 137.71 153.43 136.27 151.64C135.56 150.76 134.88 150.03 134.38 149.52L170.23 145.91L173.92 160.32L173.03 173.7L157.18 174.47L141.4 175.23V175.25Z" stroke="#FF821F" stroke-width="1.1"/>
<path d="M141.4 175.25C141.4 174.92 141.39 174.45 141.37 173.87C141.34 172.67 141.29 171.01 141.2 169.19C141.02 165.57 140.67 161.23 140.01 158.55C139.36 155.9 137.71 153.43 136.27 151.64C135.56 150.76 134.88 150.03 134.38 149.52L170.23 145.91L173.92 160.32L173.03 173.7L157.18 174.47L141.4 175.23V175.25Z" stroke="black" stroke-width="1.1"/>
<path d="M146.78 162.8L163.7 161.38" stroke="#7AD17E" stroke-linecap="round"/>
<path d="M150.98 164.86L160.69 164.34" stroke="#7AD17E" stroke-linecap="round"/>
<path d="M143.57 172.28L148.43 171.98" stroke="#9FDCA2" stroke-linecap="round"/>
<path d="M164.05 171.38L168.91 171.08" stroke="#9FDCA2" stroke-linecap="round"/>
<path d="M144.87 153.92C144.54 153.95 144.3 153.93 144.16 153.89C144.02 153.84 143.93 153.76 143.9 153.67C143.87 153.58 143.85 153.49 143.85 153.39C143.85 153.27 143.9 153.14 144.01 152.99C144.13 152.84 144.31 152.74 144.56 152.67C144.91 152.56 145.29 152.47 145.7 152.4C146.11 152.33 146.51 152.27 146.91 152.24C147.31 152.2 147.66 152.16 147.96 152.14C148.26 152.12 148.49 152.15 148.65 152.23C148.81 152.3 148.92 152.39 148.98 152.5C149.04 152.6 149.08 152.69 149.08 152.77C149.08 152.87 149.05 152.99 148.97 153.12C148.9 153.24 148.73 153.32 148.46 153.34C148.36 153.34 148.22 153.36 148.05 153.39C147.87 153.42 147.68 153.45 147.46 153.49C147.46 153.81 147.43 154.22 147.38 154.71C147.33 155.2 147.26 155.73 147.15 156.31C147.05 156.88 146.91 157.46 146.72 158.04C146.55 158.62 146.32 159.17 146.04 159.69C145.77 160.2 145.45 160.65 145.07 161.04C144.7 161.42 144.26 161.7 143.75 161.87C143.65 161.9 143.56 161.93 143.48 161.95C143.41 161.98 143.32 161.99 143.22 162C143.03 162.01 142.87 161.99 142.74 161.92C142.61 161.85 142.53 161.74 142.49 161.58C142.45 161.39 142.47 161.21 142.54 161.03C142.61 160.86 142.74 160.74 142.94 160.66C143.41 160.46 143.82 160.21 144.15 159.88C144.49 159.55 144.78 159.12 145.02 158.6C145.26 158.07 145.46 157.41 145.61 156.62C145.77 155.83 145.9 154.86 145.99 153.74C145.77 153.78 145.56 153.81 145.36 153.84C145.16 153.87 145 153.89 144.86 153.9L144.87 153.92ZM152.74 159.6C152.56 159.61 152.37 159.59 152.16 159.52C151.95 159.44 151.75 159.3 151.56 159.1C151.37 158.9 151.21 158.61 151.07 158.24C150.94 157.87 150.86 157.39 150.84 156.81C150.82 156.38 150.86 155.93 150.96 155.48C151.06 155.02 151.23 154.58 151.46 154.16C151.69 153.74 152 153.37 152.38 153.04C152.77 152.71 153.24 152.47 153.79 152.31C154.02 152.24 154.28 152.17 154.57 152.1C154.87 152.02 155.17 151.95 155.48 151.89C155.79 151.82 156.08 151.76 156.35 151.71C156.63 151.66 156.86 151.63 157.06 151.62C157.37 151.59 157.61 151.62 157.77 151.69C157.93 151.76 158.04 151.85 158.1 151.96C158.16 152.06 158.19 152.15 158.19 152.24C158.19 152.34 158.16 152.45 158.1 152.56C158.04 152.67 157.88 152.75 157.62 152.8C157.56 152.81 157.44 152.84 157.25 152.88C157.06 152.92 156.83 152.96 156.57 153.02C156.31 153.08 156.03 153.14 155.74 153.21C155.45 153.27 155.17 153.34 154.9 153.4C154.63 153.46 154.4 153.52 154.21 153.56C153.78 153.67 153.44 153.83 153.17 154.04C152.91 154.24 152.71 154.46 152.57 154.72C152.44 154.97 152.34 155.24 152.29 155.51C152.55 155.43 152.82 155.35 153.1 155.27C153.38 155.19 153.64 155.12 153.89 155.05C154.14 154.98 154.36 154.93 154.54 154.89C154.72 154.85 154.85 154.83 154.91 154.82C155.17 154.8 155.32 154.82 155.38 154.88C155.44 154.94 155.48 155.04 155.48 155.18C155.48 155.3 155.38 155.46 155.16 155.64C154.94 155.82 154.6 156 154.12 156.21C153.64 156.41 153.01 156.61 152.23 156.79C152.23 156.93 152.22 157.08 152.22 157.25C152.22 157.42 152.22 157.58 152.22 157.74C152.22 157.9 152.24 158.04 152.26 158.14C152.28 158.24 152.32 158.29 152.37 158.29C152.51 158.28 152.71 158.23 152.97 158.15C153.23 158.07 153.49 157.98 153.77 157.87C154.05 157.76 154.31 157.66 154.55 157.56C154.79 157.46 154.96 157.38 155.07 157.32C155.23 157.24 155.39 157.16 155.55 157.08C155.72 157 155.85 156.96 155.95 156.95C156.05 156.95 156.13 156.97 156.21 157.05C156.28 157.12 156.31 157.23 156.29 157.38C156.29 157.45 156.22 157.56 156.1 157.72C155.98 157.87 155.81 158.05 155.6 158.25C155.39 158.44 155.14 158.64 154.84 158.83C154.55 159.02 154.23 159.18 153.87 159.32C153.52 159.45 153.15 159.53 152.75 159.57L152.74 159.6ZM161.42 158.92C161.24 158.93 161.05 158.91 160.84 158.84C160.63 158.76 160.44 158.62 160.24 158.42C160.05 158.22 159.89 157.93 159.75 157.56C159.62 157.19 159.54 156.71 159.52 156.13C159.5 155.7 159.54 155.25 159.64 154.8C159.74 154.34 159.91 153.9 160.14 153.48C160.37 153.06 160.68 152.69 161.06 152.36C161.45 152.03 161.92 151.79 162.47 151.63C162.7 151.56 162.96 151.49 163.25 151.42C163.55 151.34 163.85 151.27 164.16 151.21C164.47 151.14 164.76 151.08 165.03 151.03C165.31 150.98 165.55 150.95 165.74 150.94C166.05 150.91 166.29 150.94 166.45 151.01C166.61 151.08 166.72 151.17 166.77 151.28C166.83 151.38 166.86 151.47 166.86 151.56C166.86 151.66 166.83 151.77 166.77 151.88C166.71 151.99 166.55 152.07 166.29 152.12C166.23 152.13 166.11 152.16 165.92 152.2C165.73 152.24 165.5 152.28 165.24 152.34C164.98 152.4 164.7 152.46 164.41 152.53C164.12 152.59 163.84 152.66 163.57 152.72C163.3 152.78 163.07 152.84 162.88 152.88C162.45 152.99 162.11 153.15 161.84 153.36C161.58 153.56 161.38 153.78 161.24 154.04C161.11 154.29 161.01 154.56 160.96 154.83C161.22 154.75 161.49 154.67 161.77 154.59C162.05 154.51 162.31 154.44 162.56 154.37C162.81 154.3 163.03 154.25 163.21 154.21C163.39 154.17 163.52 154.15 163.58 154.14C163.84 154.12 163.99 154.14 164.05 154.2C164.11 154.26 164.15 154.36 164.15 154.5C164.15 154.62 164.05 154.78 163.83 154.96C163.61 155.14 163.27 155.32 162.79 155.53C162.31 155.73 161.68 155.93 160.9 156.11V156.12C160.9 156.25 160.89 156.4 160.89 156.58C160.89 156.74 160.89 156.91 160.89 157.07C160.89 157.23 160.91 157.37 160.93 157.47C160.95 157.57 160.99 157.62 161.04 157.62C161.18 157.61 161.38 157.56 161.64 157.48C161.89 157.4 162.16 157.31 162.44 157.2C162.72 157.09 162.98 156.99 163.22 156.89C163.46 156.79 163.63 156.71 163.74 156.65C163.9 156.57 164.06 156.49 164.22 156.41C164.39 156.33 164.52 156.29 164.62 156.28C164.72 156.28 164.8 156.3 164.88 156.38C164.95 156.45 164.98 156.56 164.96 156.71C164.96 156.78 164.89 156.89 164.77 157.05C164.65 157.2 164.48 157.38 164.27 157.58C164.06 157.77 163.81 157.97 163.51 158.16C163.22 158.35 162.9 158.51 162.54 158.65C162.19 158.78 161.82 158.87 161.42 158.9V158.92Z" fill="#3486E5"/>
<path fill-rule="evenodd" clip-rule="evenodd" d="M137.69 168.55C137.69 168.55 135.98 163.33 136.96 162.57C137.95 161.81 143.81 160.38 144.72 160.09C145.64 159.8 145.76 162.13 143.87 162.63C143.87 162.63 145.79 161.83 145.02 163.68C144.28 165.45 142.51 165.33 140.14 166.63C138.91 167.31 137.68 168.54 137.68 168.54L137.69 168.55Z" fill="#EEB393"/>
<path fill-rule="evenodd" clip-rule="evenodd" d="M137.01 163.41C137.01 163.41 136.31 160.77 137.27 159.93C138.17 159.14 143.63 157.79 144.18 158.14C144.74 158.49 144.33 160.41 142.98 161.1C141.63 161.78 137.02 163.41 137.02 163.41H137.01Z" fill="#EEB393"/>
<path d="M144.38 159.14C144.38 159.14 144.53 158.39 144.17 158.14C143.81 157.88 140.4 158.62 138.8 159.21C137.2 159.8 136.9 159.99 136.8 160.96C136.69 161.92 136.86 162.67 136.86 162.67" stroke="#DF8260" stroke-width="0.5" stroke-linecap="round" stroke-linejoin="round"/>
<path d="M143.88 162.63C143.88 162.63 144.9 162.4 145.21 161.55C145.52 160.7 145.37 159.94 144.72 160.09C144.08 160.24 140.37 161.27 139.04 161.71C137.71 162.15 136.95 162.42 136.77 162.84C136.59 163.26 136.65 164.11 136.73 164.61" stroke="#DF8260" stroke-width="0.75" stroke-linecap="round" stroke-linejoin="round"/>
<path d="M139.78 167.68C139.78 167.68 139.39 167.74 140.05 166.23C140.28 165.69 142.6 165.94 144.17 164.75C145 164.12 145.33 163.13 145.13 162.68C144.93 162.23 143.84 162.61 142.96 162.86C142.22 163.06 139.72 163.65 138.99 163.89C138.26 164.12 137.25 164.52 137.48 166.89C137.71 169.26 138.18 170.45 140.39 172.32" stroke="#DF8260" stroke-width="0.75" stroke-linecap="round" stroke-linejoin="round"/>
<path fill-rule="evenodd" clip-rule="evenodd" d="M179.67 168.1C178.05 167.11 177.54 165 178.51 163.38C179.36 161.96 181.09 161.37 182.59 161.9C182.75 161.96 182.91 162.02 183.07 162.11L201.65 171.88C202.03 172 202.39 172.17 202.75 172.38C205.34 173.94 206.18 177.31 204.62 179.9C203.06 182.49 199.69 183.33 197.1 181.77L179.66 168.1H179.67Z" fill="#EEB393"/>
<path fill-rule="evenodd" clip-rule="evenodd" d="M158.69 119.61C158.69 119.61 156.72 118.88 156.36 116.26C156 113.63 157.1 111.88 158.84 113.79C160.95 116.1 158.68 119.61 158.68 119.61H158.69Z" fill="#DF8260"/>
<path d="M157.56 119.62C157.892 119.62 158.16 119.351 158.16 119.02C158.16 118.689 157.892 118.42 157.56 118.42C157.229 118.42 156.96 118.689 156.96 119.02C156.96 119.351 157.229 119.62 157.56 119.62Z" fill="#AF8AFF"/>
<path d="M156.96 113.87C156.96 113.87 158.12 114.11 158.35 116.61" stroke="#D15844" stroke-width="1.13" stroke-linecap="round" stroke-linejoin="round"/>
<path fill-rule="evenodd" clip-rule="evenodd" d="M175.93 117.47C175.93 117.47 181.44 117.01 180.38 121.21C179.47 124.86 175.37 125.22 173.81 124.41L173.79 124.43C172.78 125.56 170.34 127.48 168.15 128.84C165.77 130.32 164.05 130.22 162.69 128.38C161.33 126.54 156.97 123.23 157.63 116.94C158.3 110.65 160.7 105.71 160.7 105.71C160.7 105.71 163.61 104.01 167.51 104.34C172.06 104.72 173.9 107.71 173.9 107.71C173.52 115.22 175.92 117.46 175.92 117.46L175.93 117.47Z" fill="#EEB393"/>
<path fill-rule="evenodd" clip-rule="evenodd" d="M158.56 112.33C159.41 108.13 160.71 105.72 160.71 105.72C160.71 105.72 162.15 104.88 164.38 104.49C159.81 106.23 158.57 112.33 158.57 112.33H158.56ZM172.15 105.98C173.37 106.85 173.91 107.73 173.91 107.73C173.53 115.24 175.93 117.48 175.93 117.48C175.93 117.48 175.97 117.48 176.05 117.48C174.38 117.68 173.51 119.63 173.39 113.77C173.32 110.43 173.34 107.7 172.14 105.99L172.15 105.98Z" fill="#DF8260"/>
<path fill-rule="evenodd" clip-rule="evenodd" d="M164.18 116.84C163.36 117.16 162.45 117.63 162.38 118C162.31 118.37 162.67 118.97 163.81 119.39C163.76 118.4 163.88 117.56 164.18 116.85V116.84Z" fill="#F4CEB2"/>
<path fill-rule="evenodd" clip-rule="evenodd" d="M161.21 120.46C162.26 120.15 163.21 121.65 164.62 121.73C166.03 121.81 168.21 121.15 168.78 121.97C169.35 122.79 168.18 124.65 166.42 125.04C164.66 125.43 162.68 124.88 161.57 123.4C160.46 121.92 160.53 120.66 161.21 120.46Z" fill="#131D29"/>
<path fill-rule="evenodd" clip-rule="evenodd" d="M161.75 123.62C162.5 122.86 164.65 121.27 168.9 122.24C169.11 123.14 168.01 124.68 166.42 125.03C164.75 125.4 162.88 124.92 161.75 123.61V123.62Z" fill="#CF4950"/>
<path d="M162.34 125.65C162.34 125.65 164.22 127.17 166.4 126.26" stroke="#DF8260" stroke-width="1.13" stroke-linecap="round" stroke-linejoin="round"/>
<path fill-rule="evenodd" clip-rule="evenodd" d="M161.6 120.42C162.5 120.5 163.38 121.66 164.61 121.73C165.68 121.79 167.2 121.42 168.12 121.6C167.82 122.08 167.2 122.91 166.3 123.13C165.02 123.44 162.74 122.58 162.26 122.2C161.93 121.94 161.7 120.98 161.59 120.42H161.6Z" fill="#E6FEFE"/>
<path d="M174.31 121.76C174.31 121.76 175.01 119.59 176.82 119.17C178.63 118.75 179.55 120.05 179.22 121.08" stroke="#DF8260" stroke-width="1.13" stroke-linecap="round" stroke-linejoin="round"/>
<path d="M175.05 124.33C175.382 124.33 175.65 124.061 175.65 123.73C175.65 123.399 175.382 123.13 175.05 123.13C174.719 123.13 174.45 123.399 174.45 123.73C174.45 124.061 174.719 124.33 175.05 124.33Z" fill="#AF8AFF"/>
<path fill-rule="evenodd" clip-rule="evenodd" d="M160.39 110.83C160.29 110.64 161.06 109.99 162.15 109.8C163.23 109.61 164.35 110.72 164.35 110.72C164.35 110.72 164.22 111.55 163.73 111.4C163.23 111.26 162.38 110.46 161.71 110.58C161.03 110.7 160.57 111.16 160.4 110.84L160.39 110.83Z" fill="#121D29"/>
<path fill-rule="evenodd" clip-rule="evenodd" d="M167.56 111.32C167.56 111.32 168.59 110.63 169.83 110.7C171.07 110.77 172.32 112.07 172.04 112.23C171.76 112.39 171.25 111.56 170.44 111.6C169.64 111.65 168.75 112.06 168.17 112.12C167.54 112.19 167.56 111.32 167.56 111.32Z" fill="#121D29"/>
<path fill-rule="evenodd" clip-rule="evenodd" d="M158.63 113.29C158.63 113.29 159.44 114.37 159.79 114.39C160.14 114.41 160.02 113.6 161.31 113.32C162.21 113.13 163.12 113.62 163.4 114.08C163.68 114.54 163.97 114.5 164.05 114.33C164.14 114.16 163.87 113.76 163.16 113.14C162.44 112.52 161.64 112.21 160.79 112.5C159.95 112.78 160.12 113.21 159.53 113.4C159.12 113.54 158.64 113.28 158.64 113.28L158.63 113.29Z" fill="#121D29"/>
<path fill-rule="evenodd" clip-rule="evenodd" d="M166.43 113.97C166.43 113.97 167.14 115.35 167.55 115.44C167.95 115.53 168.64 114.66 169.9 115.18C171.16 115.7 171.28 116.13 171.49 116.49C171.69 116.86 171.95 116.56 171.9 116.26C171.86 116.01 171.64 115.33 170.94 114.73C170.11 114.02 168.77 113.69 168.1 114.16C167.43 114.62 167.06 114.37 166.44 113.97H166.43Z" fill="#121D29"/>
<path fill-rule="evenodd" clip-rule="evenodd" d="M177.75 155.63C177.75 155.63 177.29 154.75 177.54 153.87C177.86 152.76 177.82 152.1 176.49 147.91C174.63 142.03 167.95 144.54 170.26 143.19C170.44 142.74 173.38 142.89 175.07 142.7C175.94 142.6 177.25 143.36 178.63 145.99C180.7 149.92 179.26 157.13 181.34 154.92C181.19 155.18 180.92 155.88 180.02 155.7C179.27 155.65 178.34 155.57 178.34 155.57L177.74 155.64L177.75 155.63Z" fill="#FF821E"/>
<path d="M179.87 153.43C179.78 149.12 176.7 145.69 172.98 145.78C169.26 145.87 166.32 149.43 166.41 153.75C166.5 158.06 169.58 161.49 173.3 161.4C177.02 161.31 179.96 157.75 179.87 153.44V153.43Z" fill="#FF821F"/>
<path d="M177.37 153.24C177.28 149.07 174.3 145.75 170.7 145.84C167.1 145.92 164.25 149.38 164.34 153.55C164.43 157.72 167.41 161.04 171.01 160.95C174.61 160.87 177.46 157.41 177.37 153.24Z" fill="#FFCD2F"/>
<path fill-rule="evenodd" clip-rule="evenodd" d="M170.35 148.68C170.99 148.57 172.19 151.31 172.19 151.31C172.19 151.31 175.2 151.18 175.38 151.84C175.56 152.49 173.11 154.05 173.11 154.05C173.11 154.05 173.95 157.03 173.5 157.13C173.05 157.22 170.8 155.67 170.8 155.67C170.8 155.67 168.41 157.69 167.92 157.38C167.6 157.18 168.1 154.21 168.1 154.21C168.1 154.21 165.54 153.04 165.76 152.52C165.98 151.99 169.09 151.75 169.09 151.75C169.09 151.75 169.69 148.81 170.34 148.7L170.35 148.68Z" fill="#FF821F"/>
<path fill-rule="evenodd" clip-rule="evenodd" d="M170.42 148.93C170.42 148.93 170.4 148.93 170.4 148.94C170.38 148.95 170.36 148.97 170.35 148.99C170.26 149.08 170.18 149.22 170.1 149.39C169.68 150.26 169.36 151.78 169.36 151.78C169.34 151.89 169.24 151.98 169.12 151.99C169.12 151.99 167.56 152.14 166.59 152.38C166.37 152.44 166.13 152.54 166.03 152.58C166.03 152.59 166.05 152.61 166.06 152.62C166.13 152.71 166.23 152.8 166.36 152.9C167.02 153.41 168.22 153.94 168.22 153.94C168.33 153.99 168.39 154.11 168.37 154.23C168.11 155.72 168.06 156.52 168.08 156.95C168.08 157.13 168.12 157.25 168.13 157.28C168.2 157.35 168.23 157.45 168.2 157.55C168.16 157.69 168.01 157.77 168.05 157.72C168.05 157.72 167.94 157.79 167.79 157.69C167.76 157.67 167.64 157.6 167.58 157.28C167.52 156.94 167.5 156.16 167.81 154.34C167.43 154.16 166.57 153.74 166.03 153.32C165.82 153.16 165.66 153 165.58 152.85C165.49 152.7 165.47 152.55 165.5 152.42C165.52 152.35 165.56 152.28 165.63 152.21C165.71 152.13 165.86 152.05 166.06 151.98C166.8 151.72 168.34 151.54 168.88 151.48C168.98 151.03 169.26 149.88 169.62 149.16C169.75 148.89 169.9 148.68 170.04 148.55C170.19 148.42 170.35 148.38 170.51 148.4C170.65 148.43 170.75 148.56 170.73 148.71C170.7 148.85 170.57 148.95 170.43 148.93H170.42Z" fill="white"/>
<path fill-rule="evenodd" clip-rule="evenodd" d="M177.1 153.25C177.1 153.1 177.21 152.98 177.36 152.98C177.51 152.98 177.63 153.09 177.63 153.24C177.68 154.75 177.24 157.65 174.81 159.77C173.93 160.53 172.98 160.91 172.12 161.08C172.5 161.12 172.89 161.14 173.3 161.14C173.38 161.14 175.26 161.09 176.96 159.72C178.13 158.77 179.2 157.2 179.56 154.6C179.94 151.82 178.7 149.3 177.56 148.11C177.46 148 177.46 147.84 177.56 147.73C177.67 147.63 177.84 147.63 177.94 147.73C179.16 149 180.49 151.69 180.08 154.66C179.7 157.44 178.54 159.11 177.29 160.12C175.4 161.65 173.3 161.66 173.3 161.66C171.74 161.65 170.44 161.38 169.28 160.99C169.14 160.94 169.07 160.8 169.11 160.66C169.15 160.52 169.3 160.44 169.44 160.49C169.44 160.49 172.22 161.31 174.46 159.36C176.74 157.38 177.14 154.66 177.1 153.25Z" fill="#FFE72A"/>
<path fill-rule="evenodd" clip-rule="evenodd" d="M167.39 146.15C167.29 146.16 166.92 146.2 166.54 146.1C166.06 145.98 165.58 145.65 165.57 144.86C165.57 144.4 165.7 144.08 165.89 143.86C166.31 143.4 166.98 143.38 167.1 143.38L175.15 142.95C175.15 142.95 175.19 142.95 175.2 142.95C175.2 142.95 176.72 143.14 176.75 144.59C176.76 145.35 176.27 145.73 175.77 145.92C175.34 146.08 174.9 146.08 174.86 146.08L167.39 146.14V146.15ZM167.37 145.62L174.85 145.56H174.86C174.86 145.56 175.23 145.56 175.59 145.43C175.91 145.31 176.24 145.09 176.22 144.61C176.2 143.68 175.3 143.51 175.14 143.48L167.11 143.9H167.09C167.09 143.9 166.58 143.87 166.28 144.2C166.15 144.34 166.07 144.54 166.08 144.84C166.08 145.31 166.38 145.5 166.68 145.58C167 145.66 167.33 145.61 167.33 145.61C167.34 145.61 167.35 145.61 167.37 145.61V145.62Z" fill="#FFCD2F"/>
<path fill-rule="evenodd" clip-rule="evenodd" d="M165.79 144C165.89 143.9 166.06 143.9 166.17 144C166.27 144.1 166.27 144.27 166.08 144.43L166.18 144.36C166.18 144.36 166.08 144.55 166.09 144.85C166.09 145.03 166.13 145.23 166.29 145.37C166.48 145.54 166.81 145.63 167.36 145.61C168.66 145.58 172.2 145.53 172.2 145.53C172.35 145.53 172.47 145.64 172.47 145.79C172.47 145.94 172.35 146.06 172.21 146.06C172.21 146.06 168.67 146.11 167.37 146.14C166.63 146.16 166.19 145.99 165.93 145.76C165.65 145.51 165.55 145.18 165.55 144.85C165.54 144.19 165.79 143.98 165.79 143.98V144Z" fill="#FFE72A"/>
<path d="M170.03 143.68C170.28 143.57 170.33 143.29 170.29 143.12L175.6 142.87C175.75 142.83 176.02 142.99 176.06 143.51C176.12 144.16 175.8 143.94 175.6 144.06C175.4 144.19 172.04 144.33 171.23 144.33C170.42 144.33 167.87 144.52 167.48 144.4C167.08 144.28 166.99 143.98 167.13 143.83C168.02 143.83 169.78 143.78 170.03 143.67V143.68Z" fill="#FF821F"/>
<path fill-rule="evenodd" clip-rule="evenodd" d="M170.243 156.667C170.243 156.667 167.143 155.436 166.258 156.318C165.372 157.2 166.995 157.772 167.726 157.966C169.111 158.326 169.748 158.938 170.243 156.667Z" fill="#EEB393"/>
<path fill-rule="evenodd" clip-rule="evenodd" d="M175.726 158.385C174.651 158.038 169.907 156.205 169.317 156.508C168.727 156.811 168.022 158.07 169.364 158.503C170.707 158.935 172.562 159.783 172.797 160.069C175.858 160.902 177.583 158.983 175.726 158.385Z" fill="#EEB393"/>
<path fill-rule="evenodd" clip-rule="evenodd" d="M175.853 159.562C174.733 159.422 170.06 158.601 169.206 158.915C168.407 159.105 168.094 160.528 169.625 160.865C171.082 161.186 172.473 161.616 173.29 161.763C176.818 162.4 177.789 159.803 175.853 159.562Z" fill="#EEB393"/>
<path fill-rule="evenodd" clip-rule="evenodd" d="M175.871 162.506C174.778 162.222 170.251 160.802 169.364 161.003C168.547 161.087 168.053 162.458 169.527 162.991C170.93 163.498 172.253 164.104 173.044 164.356C176.46 165.445 177.759 162.996 175.871 162.506Z" fill="#EEB393"/>
<path fill-rule="evenodd" clip-rule="evenodd" d="M176.195 164.594C175.103 164.31 170.575 162.891 169.688 163.091C168.872 163.176 168.377 164.546 169.851 165.079C171.254 165.586 172.578 166.193 173.369 166.445C176.784 167.533 178.083 165.084 176.195 164.594Z" fill="#EEB393"/>
<path fill-rule="evenodd" clip-rule="evenodd" d="M178.576 167.772C177.891 167.882 177.17 167.837 176.465 167.61L172.889 166.459C171.696 166.075 171.04 164.794 171.424 163.601L172.818 159.277C173.203 158.084 173.747 157.945 175.484 157.945C176.604 157.945 178.632 158.221 180.921 159.384C181.982 159.922 183.864 161.622 184.579 163.016C185.377 164.574 185.053 166.069 183.497 166.867C182.923 167.161 182.301 167.264 181.705 167.198C181.064 167.128 180.187 167.444 178.841 167.722C178.781 167.735 178.722 167.747 178.661 167.757C178.63 167.764 178.601 167.769 178.576 167.772Z" fill="#EEB393"/>
</svg>
