<svg width="240" height="320" viewBox="0 0 240 320" fill="none" xmlns="http://www.w3.org/2000/svg">
<mask id="mask0_544_34718" style="mask-type:luminance" maskUnits="userSpaceOnUse" x="36" y="1" width="169" height="301">
<path d="M188.13 1.08002H52.1299C43.2933 1.08002 36.1299 8.24346 36.1299 17.08V285.08C36.1299 293.917 43.2933 301.08 52.1299 301.08H188.13C196.966 301.08 204.13 293.917 204.13 285.08V17.08C204.13 8.24346 196.966 1.08002 188.13 1.08002Z" fill="white"/>
</mask>
<g mask="url(#mask0_544_34718)">
<path d="M191.238 1.08002H48.7619C39.5046 1.08002 32 8.24346 32 17.08V285.08C32 293.917 39.5046 301.08 48.7619 301.08H191.238C200.495 301.08 208 293.917 208 285.08V17.08C208 8.24346 200.495 1.08002 191.238 1.08002Z" fill="#C4ACF6"/>
<g opacity="0.6">
<path fill-rule="evenodd" clip-rule="evenodd" d="M86.19 63.52C91.93 63.52 96.59 58.73 96.59 52.83C96.59 46.93 91.93 42.14 86.19 42.14C86.19 42.14 62.68 41.31 54.05 73.43C45.41 105.56 55.16 132.83 55.16 132.83C55.76 138.15 60.16 142.28 65.49 142.28C71.23 142.28 75.89 137.49 75.89 131.59C75.89 131.11 75.86 130.64 75.8 130.17C75.8 130.17 75.25 124.69 69.96 109.89C62.18 88.1 69.9 63.38 85.78 63.49C85.92 63.49 86.06 63.49 86.19 63.49V63.52Z" fill="#5E31C2"/>
<path fill-rule="evenodd" clip-rule="evenodd" d="M64.22 142.22C64.64 142.27 65.06 142.3 65.49 142.3C71.23 142.3 75.89 137.51 75.89 131.61C75.89 131.13 75.86 130.66 75.8 130.19C75.8 130.19 75.25 124.71 69.96 109.91C62.18 88.13 69.9 63.4 85.78 63.51C85.92 63.51 86.06 63.51 86.19 63.51C91.93 63.51 96.59 58.72 96.59 52.82C96.59 46.92 91.93 42.13 86.19 42.13C86.19 42.13 85.66 42.11 84.74 42.19C89.97 42.75 94.05 47.3 94.05 52.82C94.05 58.72 89.39 63.51 83.65 63.51C83.51 63.51 83.37 63.51 83.24 63.51C67.37 63.4 59.65 88.12 67.42 109.91C72.7 124.71 73.26 130.19 73.26 130.19C73.32 130.65 73.35 131.13 73.35 131.61C73.35 137.07 69.36 141.57 64.22 142.22Z" fill="#6D53A1"/>
<path fill-rule="evenodd" clip-rule="evenodd" d="M74.8298 -1.18998L78.2198 19.01L94.8498 15.95L91.4598 -4.24998C85.3598 -6.50998 79.8098 -5.56998 74.8298 -1.18998Z" fill="#A086D5"/>
<path d="M88.5698 -1.78998L89.7198 5.59002" stroke="white" stroke-width="0.86" stroke-linecap="round" stroke-linejoin="round"/>
<path fill-rule="evenodd" clip-rule="evenodd" d="M61.9599 19.59C61.7099 20.81 62.72 23.72 62.72 23.72L76.6999 63.98L105.29 53.29L91.05 12.29C91.05 12.29 90.2799 9.68003 89.3899 9.03003C88.5 8.38003 87.06 8.41003 85.73 8.37003C77.57 8.16003 70.42 10.88 64.25 16.39C63.21 17.31 62.2199 18.37 61.9599 19.59Z" fill="#7C61B5"/>
<path d="M99.9299 80.23C88.0499 83.62 76.6699 80.25 74.4999 72.71C72.3299 65.17 80.2199 56.31 92.0999 52.93C103.98 49.54 115.36 52.91 117.53 60.45C119.69 67.99 111.81 76.85 99.9299 80.23Z" fill="#916FDC"/>
<path d="M100.92 83.64C89.04 87.03 77.66 83.66 75.49 76.12C73.33 68.58 81.21 59.72 93.09 56.34C104.97 52.95 116.35 56.32 118.52 63.86C120.68 71.4 112.8 80.26 100.92 83.64Z" fill="#AD88FF"/>
<path fill-rule="evenodd" clip-rule="evenodd" d="M102.505 67.54C102.508 67.54 102.51 67.5422 102.51 67.5449C102.511 67.7857 102.614 68.076 102.654 68.1803C102.664 68.207 102.677 68.2324 102.692 68.257L107.894 77.1697C109.601 80.094 113.338 81.1084 116.289 79.4485C119.307 77.7508 120.35 73.9097 118.605 70.9186L113.649 62.4275C113.623 62.3825 113.597 62.3373 113.571 62.2926C113.484 62.1467 113.267 61.8045 113.08 61.68C112.85 61.53 112.46 61.43 112.15 61.43C108.21 61.46 105.05 63.26 102.66 66.92C102.531 67.1189 102.51 67.2386 102.5 67.5349C102.5 67.5376 102.502 67.54 102.505 67.54Z" fill="#855ADF"/>
<path fill-rule="evenodd" clip-rule="evenodd" d="M90.5075 78.5C90.5091 78.5 90.5105 78.5008 90.5112 78.5021L96.125 88.1275C97.831 91.0527 101.568 92.0679 104.52 90.4078C107.538 88.7104 108.581 84.8702 106.836 81.8795L102.198 73.9311C102 73.5908 101.837 73.2181 101.554 72.9442C101.435 72.8285 101.279 72.7095 101.08 72.61C100.46 72.3 100.42 72.38 99.99 72.4C96.0222 72.5499 92.8635 74.5478 90.5039 78.4935C90.5022 78.4963 90.5042 78.5 90.5075 78.5Z" fill="#916FDC"/>
<path fill-rule="evenodd" clip-rule="evenodd" d="M78.81 72.435C78.81 72.4384 78.8097 72.4417 78.8092 72.445C78.7781 72.6566 78.7879 72.8593 78.8135 73.0329C78.8678 73.4007 79.0125 73.749 79.1172 74.1057L81.7258 82.9949C82.6813 86.2507 86.0781 88.132 89.3449 87.2147C92.6664 86.282 94.586 82.8156 93.6141 79.5054L90.8994 70.2586C90.8332 70.033 90.7819 69.8025 90.7004 69.5819C90.6193 69.3626 90.4843 69.0906 90.28 68.94C89.9 68.67 89.32 68.51 89 68.44C85.83 67.71 82.56 68.73 79.49 71.42C79.1809 71.6893 78.9016 71.8292 78.8108 72.425C78.8102 72.4283 78.81 72.4317 78.81 72.435Z" fill="#7E4AEC"/>
<path fill-rule="evenodd" clip-rule="evenodd" d="M142.45 95.32H80.86C80.86 95.32 79.17 95.18 77.46 95.56C76.68 95.73 74.91 96.51 74.91 96.51L42.82 110.14C41.36 111.36 41.34 112.45 42.82 113.41H100.86C100.86 113.41 103.03 113.44 104.79 113.17C105.85 113.01 107.87 112.17 107.87 112.17L142.46 98.3C143.99 97.11 143.88 96.13 142.46 95.32H142.45Z" fill="#9880CB"/>
<path fill-rule="evenodd" clip-rule="evenodd" d="M88.9198 115.08C88.2098 116.62 88.7898 118.17 88.7898 118.17L93.0898 143.62L126.02 137.52L121.75 112.23C121.75 112.23 121.63 110.68 120.42 109.45C119.88 108.9 118.91 108.14 117.79 107.91C108.58 106.04 99.7198 107.58 91.1998 112.84C90.1998 113.45 89.6198 113.53 88.9198 115.07V115.08Z" fill="#A6E2FB"/>
<path fill-rule="evenodd" clip-rule="evenodd" d="M74.8499 149.18V156.99H130.03V149.18C130.03 147.74 128.9 146.58 127.5 146.58H77.3899C75.9899 146.58 74.8599 147.75 74.8599 149.18H74.8499Z" fill="#A9C7FF"/>
<path fill-rule="evenodd" clip-rule="evenodd" d="M21.4999 146.58H7.71994C6.31994 146.58 5.18994 147.75 5.18994 149.18V156.99H91.8599V149.18C91.8599 147.74 90.7299 146.58 89.3299 146.58H66.6399C68.4899 143.47 69.5499 139.81 69.5499 135.9C69.5499 124.55 60.5899 115.34 49.5499 115.34C41.3399 115.34 34.2799 120.43 31.1999 127.71L21.4999 146.58Z" fill="#8663CF"/>
<path fill-rule="evenodd" clip-rule="evenodd" d="M53.22 64.87C55.34 66.6 58.02 67.63 60.93 67.63C67.78 67.63 73.35 61.91 73.35 54.87C73.35 47.83 67.79 42.11 60.93 42.11C60.93 42.11 40.98 38.7 26.18 67.63C11.38 96.56 19.66 139.11 33.98 150.01L43.47 119.37C43.47 119.37 35.16 110.1 36.34 87.59C37.51 65.09 47.48 60.61 53.22 64.87Z" fill="#785AB5"/>
<path d="M43.4701 153.12C34.4001 153.12 27.05 145.56 27.05 136.25C27.05 126.94 34.4001 119.38 43.4701 119.38C52.5401 119.38 59.89 126.93 59.89 136.25C59.89 145.57 52.5401 153.12 43.4701 153.12Z" fill="#573D8E"/>
<path d="M44.83 150.01C37.62 150.01 31.77 144 31.77 136.59C31.77 129.18 37.62 123.17 44.83 123.17C52.04 123.17 57.89 129.18 57.89 136.59C57.89 144 52.04 150.01 44.83 150.01Z" fill="#B094EB"/>
<path d="M66.4701 68.89C59.6101 68.89 54.05 63.18 54.05 56.13C54.05 49.08 59.6101 43.37 66.4701 43.37C73.3301 43.37 78.89 49.08 78.89 56.13C78.89 63.18 73.3301 68.89 66.4701 68.89Z" fill="#A086D5"/>
<path d="M66.46 65.81C61.26 65.81 57.04 61.47 57.04 56.13C57.04 50.79 61.26 46.45 66.46 46.45C71.66 46.45 75.88 50.79 75.88 56.13C75.88 61.47 71.66 65.81 66.46 65.81Z" fill="#C4ACF6"/>
<path d="M63.5398 42.39C63.5398 42.39 56.9698 40.57 47.9998 44.49C39.0298 48.41 30.5898 57.81 25.1498 69.74C19.7098 81.68 15.7198 100.64 20.2898 122.34" stroke="#A9C7FF" stroke-width="0.86" stroke-linecap="round" stroke-linejoin="round"/>
<path d="M110.27 144.48C101.2 146.15 93.56 145.82 93.21 143.75C92.86 141.68 99.92 138.64 108.99 136.97C118.06 135.3 125.7 135.63 126.05 137.7C126.4 139.78 119.34 142.81 110.27 144.48Z" fill="#3E5DAB"/>
<path d="M114.82 111.56H113.44" stroke="white" stroke-width="0.78" stroke-linecap="round" stroke-linejoin="round"/>
<path d="M116.66 122.91H115.28" stroke="white" stroke-width="0.78" stroke-linecap="round" stroke-linejoin="round"/>
<path d="M118.72 134.27H116.89" stroke="white" stroke-width="0.78" stroke-linecap="round" stroke-linejoin="round"/>
<path d="M122.65 138.62C122.65 138.62 119.19 141.74 104.69 143.61" stroke="white" stroke-width="0.78" stroke-linecap="round" stroke-linejoin="round"/>
<path d="M125.64 149.18H111.14" stroke="white" stroke-width="0.78" stroke-linecap="round" stroke-linejoin="round"/>
<path d="M85.2698 149.18H81.8198" stroke="white" stroke-width="0.78" stroke-linecap="round" stroke-linejoin="round"/>
<path d="M69.0999 146.58H66.6299C66.6299 146.58 70.1499 141.26 69.4299 133.67" stroke="white" stroke-width="0.78" stroke-linecap="round" stroke-linejoin="round"/>
<path d="M117.4 117.02C117.4 117.02 115.18 116.44 111.86 116.81" stroke="white" stroke-width="0.86" stroke-linecap="round" stroke-linejoin="round"/>
<path d="M119.14 129.16C119.14 129.16 115.92 128.94 113.07 129.27" stroke="white" stroke-width="0.86" stroke-linecap="round" stroke-linejoin="round"/>
</g>
<path d="M24.4699 197.5C24.4199 197.23 24.3899 196.99 24.3799 196.8L24.4699 197.5C25.3999 203 33.0699 222.88 77.4199 227.64C132.99 233.61 196.907 152.671 208.687 135.401L219.23 199.24C194.67 250.48 127.11 284.14 69.7199 257.09C35.7199 241.07 27.0299 216.97 26.7599 214.95L24.4699 197.49V197.5Z" fill="#9E74F8"/>
<path d="M161.83 72.17C139.34 -10.3 52.15 -0.829983 28.47 -0.829983L55.69 -13.06L95.54 -22.92L200.49 -13.06C208.12 -10.82 246.02 9.19002 232.45 27.18C218.88 45.17 176.69 56.77 170.5 73.74C168.66 74.27 164.35 74.69 161.82 72.16L161.83 72.17Z" fill="#9C7CDF"/>
<path d="M31.8899 187.24C32.1099 186.95 32.2999 186.71 32.4799 186.51L31.8899 187.24C27.4999 193.13 15.4399 217.76 50.3499 256.69C94.0999 305.48 205.66 285.44 232.53 278.39L203.41 340.23C132.91 369.27 40.8699 348.38 15.5199 278.38C0.499929 236.92 15.6599 207.53 17.3399 205.43L31.8899 187.25V187.24Z" fill="#9C7CDF"/>
<path fill-rule="evenodd" clip-rule="evenodd" d="M168.97 223.08C179.71 256.65 199.51 199.08 206.5 178.77C207.89 174.74 208.77 172.17 208.98 172.08C211.34 171.06 205.97 168.9 197.02 166.17C197.32 165.32 197.48 164.41 197.48 163.46C197.48 159.03 193.93 155.43 189.56 155.43C187.08 155.43 184.86 156.59 183.41 158.4C181.27 151.23 174.7 146 166.93 146C165.44 146 164 146.19 162.62 146.55C162.13 146.45 161.63 146.4 161.11 146.4C158.63 146.4 156.41 147.56 154.96 149.37C152.82 142.2 146.25 136.97 138.48 136.97C133.88 136.97 129.69 138.81 126.6 141.79C122.81 136.3 114.69 134.37 107.3 137.56C106.24 138.02 105.24 138.56 104.31 139.18C97.9799 126.76 82.5999 119.42 67.4199 125.97C59.3799 129.44 52.7799 136.43 49.1499 143.99C45.4099 139.68 39.7799 137.14 33.6699 137.6C23.6799 138.36 16.0399 146.88 16.1599 156.87C15.4899 156.78 14.7999 156.76 14.0999 156.81C8.65988 157.22 4.54988 162.02 4.92988 167.51C5.30988 173 10.0299 177.13 15.4699 176.71C16.2799 176.65 17.0699 176.49 17.8199 176.24C19.4799 178.29 21.4499 180.07 23.6599 181.51C23.8499 188.84 24.7599 195.65 25.8599 198.2C26.6699 200.1 27.9899 201.64 29.6299 202.79C28.0799 205.15 32.4099 229.54 33.4899 232.05C33.9699 233.18 34.3699 234.73 34.7899 236.37C35.9299 240.85 37.2299 245.93 40.8499 244.5C40.8899 244.61 40.9399 244.72 40.9799 244.83C42.9699 249.48 49.0199 247.01 54.4599 244.66C55.1499 244.36 55.8099 242.15 56.4099 240.11C56.8899 238.47 57.3499 236.94 57.7699 236.57C59.8299 237.25 64.3399 237.44 70.2999 237.7C81.1899 238.17 96.9399 238.85 111.48 243.05C128.09 247.85 135.31 233.82 139.63 225.42C141.16 222.44 142.33 220.16 143.43 219.69C149.93 216.88 155.55 220.68 159.94 223.64C164.23 226.53 167.35 228.64 168.97 223.05V223.08Z" fill="#8F64E8"/>
<path fill-rule="evenodd" clip-rule="evenodd" d="M201.33 144.74C201.33 144.74 197.53 146.63 196.25 142.5C194.8 137.82 199.49 137.35 199.49 137.35C199.49 137.35 200.87 131.17 205.27 133.14C210.1 135.3 208.26 140.19 206.14 140.84C206.14 140.84 208.8 143.7 205.41 145.76C202.02 147.82 201.34 144.72 201.34 144.72L201.33 144.74Z" fill="#D6C2FF"/>
</g>
<path fill-rule="evenodd" clip-rule="evenodd" d="M104.49 101.43C104.49 101.43 111.38 98.82 115.2 108.77C119.02 118.72 124.43 124.35 122.62 131.2C120.81 138.05 109.95 145.86 99.3998 137.4C99.3998 137.4 90.4498 143.92 80.7198 141.02C70.9898 138.12 67.3598 128.2 72.8898 121.14C78.4098 114.08 76.0498 109.71 84.2398 103.03C92.7698 96.08 101.32 98.78 104.51 101.41L104.49 101.43Z" fill="#070C12"/>
<path d="M113.01 152.77C108.95 152.7 105.72 149.36 105.79 145.31C105.86 141.26 109.21 138.05 113.27 138.12C117.33 138.19 120.56 141.53 120.49 145.58C120.42 149.62 117.07 152.84 113.01 152.77Z" fill="#070C12"/>
<path d="M116.38 163.65C112.32 163.58 109.09 160.24 109.16 156.19C109.23 152.14 112.58 148.93 116.64 149C120.7 149.07 123.93 152.41 123.86 156.46C123.79 160.5 120.44 163.72 116.38 163.65Z" fill="#070C12"/>
<path d="M118.13 174.08C114.07 174.01 110.84 170.67 110.91 166.62C110.98 162.58 114.33 159.36 118.39 159.43C122.45 159.5 125.68 162.84 125.61 166.89C125.54 170.94 122.19 174.16 118.13 174.08Z" fill="#070C12"/>
<path d="M75.7799 149.71C79.8099 150.22 83.4899 147.38 83.9999 143.37C84.5099 139.36 81.6599 135.69 77.6399 135.17C73.6099 134.66 69.9299 137.5 69.4199 141.51C68.9099 145.52 71.7599 149.19 75.7799 149.7V149.71Z" fill="#070C12"/>
<path d="M67.1798 158.98C71.2098 159.49 74.8898 156.65 75.3998 152.64C75.9098 148.63 73.0598 144.96 69.0398 144.44C65.0098 143.93 61.3298 146.77 60.8198 150.78C60.3098 154.79 63.1598 158.46 67.1798 158.97V158.98Z" fill="#070C12"/>
<path d="M61.67 169.53C65.7 170.04 69.38 167.2 69.89 163.19C70.4 159.18 67.55 155.51 63.53 155C59.5 154.49 55.82 157.33 55.31 161.34C54.8 165.35 57.65 169.02 61.67 169.54V169.53Z" fill="#070C12"/>
<path d="M57.66 181C61.69 181.51 65.37 178.67 65.88 174.66C66.39 170.65 63.54 166.98 59.52 166.47C55.49 165.96 51.81 168.8 51.3 172.81C50.79 176.82 53.64 180.49 57.66 181Z" fill="#070C12"/>
<path fill-rule="evenodd" clip-rule="evenodd" d="M57.54 184.51C57.54 184.51 52.28 177.96 47.07 179.27C41.86 180.58 40.69 184.51 44.1 186.08C47.5 187.65 56.65 186.86 56.65 186.86C56.65 186.86 43.44 189.87 44.01 195.71C44.58 201.54 50.85 200.07 53.4 196.27C55.95 192.47 58.26 188 58.26 188L57.55 184.52L57.54 184.51Z" fill="#FF821E"/>
<path fill-rule="evenodd" clip-rule="evenodd" d="M52.0299 197.8C52.5499 197.35 53.0099 196.83 53.3999 196.26C55.9499 192.46 58.2599 187.98 58.2599 187.98L57.5499 184.5C57.5499 184.5 55.1399 181.5 51.9599 179.97C51.3099 181.63 50.3699 184.27 49.7499 187.03C53.1999 187.16 56.6599 186.86 56.6599 186.86C56.6599 186.86 52.7699 187.75 49.2999 189.49C48.7899 193.22 49.1999 196.69 52.0399 197.8H52.0299Z" fill="#E56626"/>
<path fill-rule="evenodd" clip-rule="evenodd" d="M126.81 143.77C127.5 143.94 129.91 145.33 131.68 149.52C133.66 154.22 132.71 158.95 133.39 159.06C134.06 159.17 153.45 153.5 153.36 145.97C153.27 138.44 146.7 136.08 141.76 137.59C136.82 139.1 125.54 143.45 126.81 143.77Z" fill="#DA8456"/>
<path fill-rule="evenodd" clip-rule="evenodd" d="M130.13 141.89C126.61 143.28 126.15 143.61 126.81 143.78C127.5 143.95 129.91 145.34 131.68 149.53C133.66 154.23 132.71 158.96 133.39 159.07C133.63 159.11 138.39 157.56 141.7 156.28C141.55 150.89 133.82 144.29 130.13 141.89Z" fill="#B3573F" stroke="#B3573F" stroke-width="0.05" stroke-linecap="round" stroke-linejoin="round"/>
<path fill-rule="evenodd" clip-rule="evenodd" d="M90.9398 155.11C93.1198 149.1 95.5598 146.91 107.62 145.09C119.68 143.27 120.13 140.96 124.32 143.48C130.13 146.97 134.67 158.81 129.97 162.66C126.37 165.61 119.15 169.52 106.68 173.29C100.32 173.94 95.4898 173.9 92.9398 170.25C90.5198 166.78 90.0198 157.62 90.9298 155.11H90.9398Z" fill="#0EB891"/>
<path fill-rule="evenodd" clip-rule="evenodd" d="M123.92 143.24C123.92 143.24 127.12 141.98 127.82 142.23C128.51 142.48 131.97 144.06 133.89 149.4C135.81 154.74 135.33 158.87 134.96 159.67C134.59 160.47 130.9 161.83 130.73 161.37C130.56 160.92 132.66 156.7 129.78 150.66C126.9 144.62 123.35 143.51 123.92 143.23V143.24Z" fill="#043165"/>
<path fill-rule="evenodd" clip-rule="evenodd" d="M106.9 244.08C107.6 239.89 113.21 199.37 115.5 196.71C118.17 193.62 123.16 191.63 123.49 179.64C123.74 170.7 124.5 167.5 123.34 162.62C120.4 155.86 116.52 154.92 108.99 153.53C103.16 152.46 88.49 149.96 80.26 150.12C77.4 150.17 73.57 150.4 70.71 153.49C66.56 157.99 66.7 161.78 64.71 167.95C62.71 174.12 55.42 213.31 59.44 213.84C59.92 213.9 61.02 214.01 62.6 214.15C75.26 212.95 84.68 242.09 106.91 244.08H106.9Z" fill="#0EB891"/>
<path fill-rule="evenodd" clip-rule="evenodd" d="M74.26 215.09C74.26 215.09 66.8 213.99 67.58 205.5C68.36 197 68.49 195.96 73.59 194.35C78.69 192.74 81.38 189.75 81.99 183.61C82.69 176.63 82.6 170.95 81.42 170.86C80.23 170.77 79.04 187.01 70.65 188.46C68.16 188.89 64.62 187.99 61.99 187.67C59.32 200.45 57.23 213.55 59.44 213.84C60.82 214.02 66.86 214.55 74.27 215.1L74.26 215.09Z" fill="#1D8D74"/>
<path fill-rule="evenodd" clip-rule="evenodd" d="M111.43 215.1C112.13 210.91 113.52 199.43 115.81 196.78C118.48 193.69 123.84 190.74 123.58 176.44C120.56 168.83 118.03 167.78 116.98 165.35C116.98 165.35 123.45 176.2 121.65 183.38C119.1 191.53 112.15 195.7 97.3099 196.61C82.0499 197.54 70.1799 199.6 80.0399 203.77C89.9099 207.94 106.14 202.39 109.22 209.02C110.54 211.86 111.34 215.56 111.11 217.03C111.23 216.52 111.41 215.28 111.43 215.11V215.1Z" fill="#1D8D74"/>
<path fill-rule="evenodd" clip-rule="evenodd" d="M83.6699 161.52C84.9299 155.4 79.84 148.7 73.51 151.13C67.05 153.61 62.8999 157.8 58.5699 166.67C54.2099 175.61 51.7499 180.23 52.8699 182.49C53.3999 183.56 58.01 183.4 61.99 184.97C66.41 186.71 70.2699 190.13 71.6299 190.1C74.2099 190.06 75.6 189.81 78.51 180.69C80.37 174.87 82.37 167.77 83.66 161.52H83.6699Z" fill="#0EB891"/>
<path fill-rule="evenodd" clip-rule="evenodd" d="M70.3399 193.13C69.9499 193.51 63.1799 192.22 57.4099 189.8C51.6299 187.38 50.5299 186.21 51.5499 185.65C52.5699 185.1 58.2199 184.09 62.7599 186.29C67.2999 188.49 71.6299 192.63 70.4399 193.08L70.3499 193.13H70.3399Z" fill="#0B1017"/>
<path fill-rule="evenodd" clip-rule="evenodd" d="M69.7398 192.62C69.7998 192.14 68.3598 189.59 63.9998 187.56C59.6298 185.53 55.9698 185.23 53.6698 185.29C51.3698 185.34 51.5198 186 51.5798 186.22C51.6398 186.44 51.3398 186.59 51.1698 186.06C50.9998 185.53 51.2398 185.29 51.4598 184.49C51.6698 183.69 52.3998 182.58 52.5798 182.48C52.7698 182.39 56.4798 181.07 63.4398 183.44C70.3998 185.81 72.5298 189.22 72.5598 190.06C72.5898 190.89 71.0298 192.99 70.2498 193.18C69.4698 193.37 69.1498 192.9 69.3798 192.82C69.6098 192.74 69.7098 192.85 69.7298 192.63L69.7398 192.62Z" fill="#043165"/>
<path fill-rule="evenodd" clip-rule="evenodd" d="M67.6198 191.01C67.7898 190.54 66.5498 189.02 62.6998 187.31C58.8598 185.6 53.1398 185.21 52.4098 185.96C51.6798 186.72 48.1298 194.52 46.9198 199.78C45.5598 205.65 47.0998 209.72 52.8598 211.56C58.6198 213.4 61.8298 210 63.2298 204.11C64.3098 199.58 65.5998 196.69 67.6098 191.01H67.6198Z" fill="#DA8456"/>
<path fill-rule="evenodd" clip-rule="evenodd" d="M65.73 196.19C66.28 194.68 66.91 193.02 67.62 191.01C67.79 190.54 66.55 189.02 62.7 187.31C58.86 185.6 53.14 185.21 52.41 185.96C52.12 186.26 51.38 187.7 50.51 189.64C51.7 189.04 53.38 188.72 55.75 189.08C61.88 190 64.57 193.65 65.72 196.18L65.73 196.19Z" fill="#B3573F"/>
<path fill-rule="evenodd" clip-rule="evenodd" d="M108.23 169.29C109.18 170.65 112.92 166.05 111.47 158.16C110.02 150.28 106.11 144.66 97.2398 143.88C88.3598 143.1 83.5798 144.78 82.1698 151.04C80.7598 157.29 80.9098 163.51 86.2798 168.08C91.6498 172.66 93.2599 173.42 93.2999 170.85C93.3699 166.93 95.2298 164.89 97.0998 166.44C98.9698 167.99 99.9398 167.87 100.78 166.5C101.62 165.13 102.24 164.41 103.55 164.24C104.85 164.08 107.01 167.51 108.24 169.29H108.23Z" fill="#043165"/>
<path fill-rule="evenodd" clip-rule="evenodd" d="M67.09 190.19C67.11 190.01 66.98 189.84 66.8 189.82C66.62 189.8 66.45 189.93 66.43 190.11L65.17 200.23C65.15 200.41 65.28 200.57 65.46 200.6C65.64 200.62 65.81 200.49 65.83 200.31L67.09 190.19Z" fill="#B3573F"/>
<path fill-rule="evenodd" clip-rule="evenodd" d="M102.81 140.09C102.81 140.09 101.98 150.02 102.36 151.63C102.74 153.25 104.2 156.9 103.5 159.43C102.79 161.97 99.6799 166.08 99.1699 166.05C98.6599 166.01 93.3999 163.17 90.7099 157.31C88.0199 151.45 89.7799 149.89 89.6899 144.13C89.6399 140.7 89.6699 137.54 88.7499 135.72C88.1299 134.48 87.0099 133.06 84.8599 131.95C84.8599 131.95 85.4299 129.32 87.8899 129.64C90.1699 129.93 97.6899 129.68 99.9599 130.68C104.24 132.57 102.9 137.55 102.81 140.09Z" fill="#DA8456"/>
<path fill-rule="evenodd" clip-rule="evenodd" d="M89.5 129.74C90.18 134.54 100.28 152.83 101.92 156.24C103.66 159.87 101.26 163.72 101.26 163.72C102.19 162.38 103.15 160.71 103.51 159.43C104.22 156.89 102.75 153.24 102.37 151.63C101.99 150.01 102.82 140.09 102.82 140.09C102.91 137.54 104.25 132.56 99.97 130.68C98.1 129.85 92.63 129.88 89.5 129.75V129.74Z" fill="#B3573F"/>
<path fill-rule="evenodd" clip-rule="evenodd" d="M83.07 121.62C81.8 121.2 79.65 121.03 78.09 122.51C73.35 127.01 81.14 133.61 85.46 131.74C86.05 131.48 86.5 131.14 86.82 130.74C89.11 135.43 94.2 140.34 101.42 140.18C111.35 139.96 116.6 131.8 116.31 125.23C116.08 119.82 115.3 116.55 112.4 110.42C109.68 104.68 104.31 105.99 104.31 105.99C96.34 103.06 91.7 109.06 88.67 115.05C86.23 119.87 84.06 121.33 83.07 121.62Z" fill="#DA8456"/>
<path fill-rule="evenodd" clip-rule="evenodd" d="M83.0698 121.62C83.0698 121.62 85.1198 122.22 86.1898 124.17C86.1898 124.17 88.5198 122.61 89.4598 118.13C90.1898 114.65 92.1398 109.42 95.4498 106.63C92.5098 108.44 90.3398 111.75 88.6698 115.05C86.2298 119.87 84.0598 121.33 83.0698 121.62Z" fill="#B3573F"/>
<path d="M114.3 123.98C114.11 123.98 113.95 123.83 113.95 123.64C113.95 123.45 114.1 123.29 114.29 123.29C114.48 123.29 114.64 123.44 114.64 123.62C114.64 123.81 114.49 123.97 114.3 123.97V123.98Z" fill="#B3573F" stroke="#B3573F" stroke-width="0.05" stroke-linecap="round" stroke-linejoin="round"/>
<path d="M112.12 125.87C111.93 125.87 111.77 125.72 111.77 125.53C111.77 125.34 111.92 125.18 112.11 125.18C112.3 125.18 112.46 125.33 112.46 125.51C112.46 125.7 112.31 125.86 112.12 125.86V125.87Z" fill="#B3573F" stroke="#B3573F" stroke-width="0.05" stroke-linecap="round" stroke-linejoin="round"/>
<path d="M110.71 123.56C110.49 123.56 110.3 123.39 110.29 123.16C110.29 122.94 110.46 122.75 110.69 122.74C110.91 122.74 111.1 122.91 111.11 123.14C111.11 123.36 110.94 123.55 110.71 123.55V123.56Z" fill="#B3573F" stroke="#B3573F" stroke-width="0.05" stroke-linecap="round" stroke-linejoin="round"/>
<path d="M95.4999 123.49C95.3199 123.49 95.1699 123.35 95.1599 123.17C95.1599 122.99 95.2999 122.84 95.4799 122.83C95.6599 122.83 95.8099 122.97 95.8199 123.15C95.8199 123.33 95.6799 123.48 95.4999 123.49Z" fill="#B3573F" stroke="#B3573F" stroke-width="0.05" stroke-linecap="round" stroke-linejoin="round"/>
<path d="M93.3099 125.74C93.1099 125.74 92.9499 125.59 92.9399 125.39C92.9399 125.19 93.0899 125.03 93.2899 125.03C93.4899 125.03 93.6499 125.18 93.6599 125.38C93.6599 125.58 93.5099 125.74 93.3099 125.74Z" fill="#B3573F" stroke="#B3573F" stroke-width="0.05" stroke-linecap="round" stroke-linejoin="round"/>
<path d="M91.5099 123.03C91.2999 123.03 91.1299 122.87 91.1199 122.66C91.1199 122.45 91.2799 122.28 91.4899 122.27C91.6999 122.27 91.8699 122.43 91.8799 122.64C91.8799 122.85 91.7199 123.02 91.5099 123.03Z" fill="#B3573F" stroke="#B3573F" stroke-width="0.05" stroke-linecap="round" stroke-linejoin="round"/>
<path fill-rule="evenodd" clip-rule="evenodd" d="M85.0498 127.87C85.0298 128.05 85.1698 128.21 85.3498 128.23C85.5298 128.25 85.6898 128.11 85.7098 127.93C85.7098 127.93 85.9998 124.61 82.6598 123.22C81.2898 122.65 80.2698 122.75 79.5598 123.14C78.4698 123.75 78.0798 125.1 78.2698 126.05C78.2998 126.23 78.4798 126.35 78.6598 126.31C78.8398 126.28 78.9598 126.1 78.9198 125.92C78.7798 125.19 79.0598 124.17 79.8898 123.7C80.4698 123.38 81.2898 123.35 82.4098 123.81C85.2898 125.01 85.0598 127.86 85.0598 127.86L85.0498 127.87Z" fill="#B3573F"/>
<path fill-rule="evenodd" clip-rule="evenodd" d="M112.82 113.91C113 113.69 112.47 113.2 111.2 112.37C109.93 111.54 107.21 110.85 105.69 112.42C104.17 113.99 104.81 114.36 105.52 113.93C106.23 113.5 108.27 112.44 110.05 113.01C111.83 113.58 112.5 114.33 112.83 113.91H112.82Z" fill="#121D29"/>
<path fill-rule="evenodd" clip-rule="evenodd" d="M105.16 120.64C105.16 120.64 105.44 124.71 105.61 124.67C105.78 124.63 107.73 123.05 107.73 122.78C107.73 122.51 105.2 120.44 105.16 120.64Z" fill="#FFC086"/>
<path fill-rule="evenodd" clip-rule="evenodd" d="M109.14 128.47C108.79 127.63 107.13 128.08 105.27 128.58C103.64 129.02 100.83 129.17 98.9198 128.13C96.7198 126.93 94.4799 127.62 95.2999 129.61C96.1199 131.6 99.1698 134.56 103.02 134.05C106.86 133.54 109.9 130.29 109.14 128.46V128.47Z" fill="#121D29"/>
<path fill-rule="evenodd" clip-rule="evenodd" d="M106.17 132.93C105.92 132.11 105.08 130.04 102.8 128.91C101.48 128.94 100.05 128.74 98.9299 128.13C96.7299 126.93 94.4899 127.62 95.3099 129.61C96.1299 131.6 99.1799 134.56 103.03 134.05C104.22 133.89 105.29 133.48 106.18 132.93H106.17Z" fill="#B24658"/>
<path fill-rule="evenodd" clip-rule="evenodd" d="M107.01 128.14C106.52 128.24 105.94 128.4 105.27 128.58C103.64 129.02 100.83 129.17 98.92 128.13C98.58 127.95 98.25 127.81 97.95 127.72C98.2 128.81 98.56 129.41 99.78 129.99C101.62 130.87 104.53 130.52 105.61 129.98C106.29 129.64 106.75 128.75 107 128.14H107.01Z" fill="#E0FFFD"/>
<path fill-rule="evenodd" clip-rule="evenodd" d="M99.59 113.38C99.48 112.74 98.78 111.57 96.99 110.9C94.75 110.06 91.18 111.62 91.85 111.97C92.52 112.33 94.19 111.08 96.36 112.35C98.13 113.39 99.76 114.33 99.6 113.38H99.59Z" fill="#121D29"/>
<path fill-rule="evenodd" clip-rule="evenodd" d="M111.58 119.43C111.58 119.43 111.01 121.01 108.3 120.81C105.46 120.6 104.93 119.13 105.21 118.2C105.49 117.27 106.7 115.75 109.43 116.12C112.16 116.48 111.57 119.44 111.57 119.44L111.58 119.43Z" fill="#E0FFFD"/>
<path fill-rule="evenodd" clip-rule="evenodd" d="M113.92 116.79C113.92 116.79 112.76 118.34 111.56 118.88C111.56 118.88 111.03 116.14 107.99 116.49C106.18 116.69 105.14 118.41 105.14 118.41C105.14 118.41 104.96 118.6 104.73 118.35C104.51 118.11 105.72 116 107.63 115.54C110.62 114.71 111.28 116.15 112.13 116.54C113.15 117.01 113.93 116.79 113.93 116.79H113.92Z" fill="#121D29"/>
<path fill-rule="evenodd" clip-rule="evenodd" d="M111.255 116.35C110.467 115.625 108.534 115.74 108.86 117.652C109.133 119.26 110.488 120.195 111.507 119.585C112.526 118.976 112.484 117.474 111.255 116.35Z" fill="#121D29"/>
<path fill-rule="evenodd" clip-rule="evenodd" d="M98.01 119.57C98.01 119.57 97.18 121.53 94.02 121.19C91.26 120.89 90.68 119.17 91.2 118.12C91.85 116.82 93.52 116.16 95.61 116.35C97.7 116.54 98.19 118.53 98.01 119.58V119.57Z" fill="#E0FFFD"/>
<path fill-rule="evenodd" clip-rule="evenodd" d="M97.0898 116.331C96.0798 115.67 94.3298 116.918 95.0298 118.549C95.6398 119.968 96.7298 120.607 97.8698 119.712C98.9598 118.848 98.6498 117.355 97.0998 116.321L97.0898 116.331Z" fill="#121D29"/>
<path fill-rule="evenodd" clip-rule="evenodd" d="M98.01 119.11C98.01 119.11 99.43 118.61 100.4 116.78C100.4 116.78 99.3 117.4 98.38 116.78C97.47 116.16 96.72 115.02 94.61 115.32C92.5 115.62 91.04 117.44 90.68 118.45C90.68 118.45 90.42 118.91 90.74 118.97C90.99 119.01 91.22 118.54 91.43 118.31C92.19 117.49 93 116.66 94.76 116.62C97.71 116.55 98.01 119.1 98.01 119.1V119.11Z" fill="#121D29"/>
<path fill-rule="evenodd" clip-rule="evenodd" d="M162.01 107.05C162.01 107.05 161.27 110.81 157.53 109.9C153.79 108.98 152.78 105.83 153.67 103.83C154.55 101.83 154.14 98.9 154.57 93.72C155 88.54 159.36 82.17 160.8 81.69C162.24 81.22 162.1 83.74 161.15 85.78C160.2 87.82 160.07 90.54 161.15 90.62C162.23 90.7 165.42 89.77 169.64 86.44C173.86 83.11 176.87 78.72 177.63 79.8C178.39 80.88 176.73 85.27 171.99 88.8C171.99 88.8 173.25 89.22 178.59 84.3C181.28 81.82 181.66 82.41 181.96 83.04C182.26 83.67 181.52 85.23 181.52 85.23C181.52 85.23 182.7 86.05 181 89.15C181 89.15 181.36 90.04 180.34 91.48C179.32 92.92 174.17 98.32 170.29 100.36C166.41 102.4 163.21 101.98 162 107.05H162.01Z" fill="#DA8456"/>
<path fill-rule="evenodd" clip-rule="evenodd" d="M180.53 88.97C180.64 89.22 180.57 89.62 180.48 90.01C180.32 90.69 180.03 91.34 180.03 91.34C179.96 91.51 180.03 91.71 180.2 91.78C180.37 91.85 180.57 91.78 180.64 91.61C180.64 91.61 181.07 90.64 181.2 89.79C181.27 89.37 181.26 88.97 181.13 88.7C181.05 88.52 180.92 88.4 180.76 88.35C180.58 88.29 180.34 88.3 180.04 88.42C179.25 88.76 177.87 90.03 176.21 91.89C174.47 93.85 172.44 93.91 172.44 93.91C172.26 93.91 172.11 94.07 172.11 94.25C172.11 94.43 172.27 94.58 172.45 94.58C172.45 94.58 174.75 94.53 176.71 92.33C178.06 90.81 179.21 89.69 179.99 89.2C180.16 89.09 180.32 89.01 180.44 88.98C180.46 88.98 180.49 88.97 180.51 88.97C180.51 88.97 180.52 88.97 180.53 88.97Z" fill="#B3573F"/>
<path fill-rule="evenodd" clip-rule="evenodd" d="M180.71 88.98C180.62 89.14 180.68 89.35 180.84 89.44C181 89.53 181.21 89.47 181.3 89.31C181.3 89.31 181.88 88.27 182.11 87.18C182.28 86.37 182.25 85.55 181.78 85.01C181.55 84.75 181.31 84.64 181.07 84.63C180.84 84.63 180.59 84.7 180.33 84.88C179.42 85.5 178.11 87.5 175.73 89.43C172.63 91.93 171.59 91.93 171.59 91.93C171.4 91.93 171.25 92.07 171.24 92.25C171.24 92.43 171.38 92.59 171.56 92.6C171.56 92.6 172.76 92.69 176.15 89.95C178.2 88.29 179.45 86.59 180.34 85.75C180.5 85.6 180.64 85.48 180.78 85.4C180.89 85.34 180.98 85.29 181.07 85.3C181.15 85.3 181.22 85.36 181.3 85.45C181.64 85.84 181.61 86.45 181.48 87.04C181.27 88.04 180.74 88.98 180.74 88.98H180.71Z" fill="#B3573F"/>
<path fill-rule="evenodd" clip-rule="evenodd" d="M168.44 94.28C168.59 94.17 168.62 93.96 168.51 93.81C168.4 93.66 168.19 93.63 168.04 93.74C168.04 93.74 166.83 94.6 163.52 94.5C161.71 94.45 160.4 94.65 159.41 95.21C158.4 95.79 157.7 96.74 157.12 98.23C157.05 98.4 157.14 98.6 157.31 98.66C157.48 98.73 157.68 98.64 157.74 98.47C158.24 97.16 158.84 96.3 159.73 95.79C160.64 95.27 161.83 95.11 163.49 95.16C167.11 95.27 168.43 94.27 168.43 94.27L168.44 94.28Z" fill="#B3573F"/>
<path fill-rule="evenodd" clip-rule="evenodd" d="M181.23 85.07C181.14 85.23 181.2 85.44 181.37 85.52C181.53 85.61 181.74 85.55 181.83 85.38C181.83 85.38 182.32 84.46 182.38 83.64C182.43 82.97 182.22 82.36 181.47 82.16C180.8 81.98 180.2 82.2 179.54 82.73C178.7 83.4 177.76 84.59 176.35 85.83C173.82 88.06 172.46 88.94 170.77 89.11C170.59 89.13 170.45 89.29 170.47 89.48C170.49 89.66 170.65 89.8 170.84 89.78C172.63 89.6 174.1 88.7 176.79 86.33C178.19 85.1 179.12 83.91 179.96 83.25C180.42 82.88 180.82 82.68 181.29 82.81C181.67 82.91 181.74 83.25 181.71 83.59C181.66 84.29 181.24 85.07 181.24 85.07H181.23Z" fill="#B3573F"/>
<path fill-rule="evenodd" clip-rule="evenodd" d="M162.34 105.63C162.86 103.27 161.38 100.93 159.02 100.39C156.95 99.92 154.89 100.99 154.04 102.84C153.95 103.04 153.87 103.24 153.81 103.46L140.46 139.37C140.24 139.83 140.07 140.31 139.95 140.83C139.09 144.59 141.45 148.35 145.21 149.21C148.97 150.07 152.73 147.71 153.59 143.95L162.34 105.64V105.63Z" fill="#DA8456"/>
<path fill-rule="evenodd" clip-rule="evenodd" d="M127.67 72.81C127.67 72.81 121.2 73.82 120.34 75.3C119.49 76.79 121.06 91.7 131.5 89.9C141.94 88.1 141.34 72.89 141.34 72.89L127.67 72.8V72.81Z" fill="#C3BAD4" stroke="white" stroke-width="0.39" stroke-linecap="round" stroke-linejoin="round"/>
<path fill-rule="evenodd" clip-rule="evenodd" d="M141.34 72.89C141.34 72.89 134.26 74.27 133.83 75.47C133.4 76.67 137.19 83.26 131.8 84.47C126.41 85.68 121.56 73.56 125.41 66.47C129.25 59.38 138.45 61.73 141.35 72.89H141.34Z" fill="#E4DEF2"/>
<path fill-rule="evenodd" clip-rule="evenodd" d="M131.8 84.48C131.8 84.48 132.49 84.38 133.38 84.15C135.32 83.65 139.34 82.72 141.95 81.37C146.09 79.21 141.34 72.9 141.34 72.9C141.34 72.9 136.73 73.85 135.17 74.57C133.61 75.29 133.69 75.41 133.96 76.7C134.24 77.99 136.47 83.53 131.8 84.48Z" fill="white"/>
<path fill-rule="evenodd" clip-rule="evenodd" d="M129.9 62.08C128.76 62.26 128.38 62.87 128.58 63.17C128.94 63.72 130.66 62.13 133.58 63.67C136.5 65.21 138.62 68.69 139.33 74.88C139.74 78.44 138.58 82.83 136.99 85.64C135.82 87.71 134.25 88.73 133.78 88.93C132.69 89.39 132.75 90.44 134.23 90.15C135.71 89.85 148.36 80.58 171 75.51C193.63 70.45 200.47 72.06 202.92 71.71C205.37 71.36 206.02 70.72 206.73 69.18C207.45 67.63 211.08 63.09 208.79 55.04C206.5 47 200.57 44.23 199.11 43.78C197.65 43.33 195.83 43.43 194.31 44.09C192.01 45.09 179.79 55.34 163.65 59.74C147.5 64.14 131.06 61.92 129.92 62.1L129.9 62.08Z" fill="#F9F6FF"/>
<path fill-rule="evenodd" clip-rule="evenodd" d="M161.76 60.5C161.76 60.5 161.69 60 162.1 59.63C162.51 59.25 163.39 58.95 165.19 57.89C166.99 56.83 167.87 56.13 168.49 56.06C169.1 56 172.66 57.05 175.22 62.78C177.78 68.51 176.82 74.55 176.46 74.78C176.09 75.01 174.51 75.68 172.68 76.71C170.84 77.73 169.63 78.69 169.28 78.63C168.93 78.57 168.68 78.34 168.68 78.34C168.68 78.34 172.23 73.53 168.21 66.28C164.19 59.02 161.77 60.51 161.77 60.51L161.76 60.5Z" fill="#FF821E"/>
<path fill-rule="evenodd" clip-rule="evenodd" d="M164.34 58.68C163.91 58.61 163.67 58.23 163.82 57.82C163.96 57.41 164.43 57.13 164.86 57.2C164.86 57.2 171.11 58.12 173.54 64.99C175.91 71.68 174.47 76.96 174.47 76.96C174.36 77.37 173.91 77.67 173.47 77.64C173.03 77.6 172.76 77.24 172.87 76.83C172.87 76.83 174.18 71.91 171.96 65.65C169.81 59.57 164.34 58.69 164.34 58.69V58.68Z" fill="#E56626"/>
<path fill-rule="evenodd" clip-rule="evenodd" d="M161.99 60.86C161.94 60.89 161.88 60.91 161.83 60.93C161.64 60.98 161.45 60.93 161.34 60.78C161.2 60.59 161.28 60.31 161.52 60.15C161.52 60.15 162.3 59.55 163.73 60.23C164.86 60.77 166.54 62.24 168.65 66.02C172.91 73.62 169.06 78.55 169.06 78.55C168.89 78.77 168.58 78.85 168.37 78.73C168.16 78.61 168.12 78.34 168.28 78.12C168.28 78.12 171.7 73.58 167.75 66.53C165.76 62.98 164.22 61.56 163.16 61.05C162.47 60.72 162.01 60.86 161.99 60.87V60.86Z" fill="#E56626"/>
<path fill-rule="evenodd" clip-rule="evenodd" d="M139.8 62.96C139.39 62.98 139.07 62.75 139.09 62.46C139.1 62.16 139.45 61.91 139.85 61.89C139.85 61.89 153.65 61.26 162.65 59.52C163.05 59.44 163.43 59.61 163.5 59.9C163.57 60.19 163.3 60.48 162.9 60.56C153.78 62.32 139.8 62.96 139.8 62.96Z" fill="white"/>
<path fill-rule="evenodd" clip-rule="evenodd" d="M192.56 47.76C192.24 47.97 191.79 47.97 191.56 47.75C191.33 47.53 191.39 47.18 191.71 46.96C191.71 46.96 193.05 46.06 194.69 45.43C195.87 44.98 197.2 44.69 198.32 44.88C199.39 45.06 200.78 45.7 202.19 47.05C204.18 48.94 206.25 52.25 207.55 57.62C207.62 57.91 207.36 58.23 206.97 58.32C206.58 58.41 206.21 58.25 206.14 57.96C204.9 52.82 202.94 49.63 201.04 47.82C199.86 46.7 198.73 46.12 197.84 45.97C197.01 45.83 196.04 46.09 195.17 46.42C193.73 46.97 192.55 47.76 192.55 47.76H192.56Z" fill="white"/>
<path fill-rule="evenodd" clip-rule="evenodd" d="M206.32 60.27C206.32 59.97 206.66 59.69 207.05 59.66C207.44 59.63 207.76 59.85 207.75 60.15V60.49C207.73 60.79 207.4 61.07 207.01 61.1C206.62 61.13 206.3 60.91 206.31 60.61V60.27H206.32Z" fill="white"/>
<path d="M145.6 304.97C145.07 305.34 144.5 305.65 143.87 305.89C139.71 307.51 135.03 305.5 133.43 301.39C131.83 297.29 133.91 292.64 138.07 291.02C138.61 290.81 139.15 290.66 139.7 290.57C137.23 282.97 141.19 274.62 148.83 271.64C155.31 269.12 162.44 271.22 166.49 276.34C167.13 274.4 168.61 272.73 170.68 271.93C171.11 271.76 171.55 271.64 171.98 271.56C173.01 270.82 174.16 270.19 175.4 269.71C181.88 267.19 189.01 269.29 193.06 274.41C193.7 272.47 195.18 270.8 197.25 270C200.9 268.58 204.99 270.35 206.39 273.94C206.82 275.04 206.95 276.19 206.81 277.29C208.22 277.7 209.43 278.72 210 280.19C210.95 282.64 209.76 285.4 207.34 286.45C207.37 286.51 207.39 286.57 207.42 286.64C208.47 289.35 207.1 292.41 204.36 293.48C203.73 293.73 203.08 293.84 202.45 293.85C200.36 298.76 196.34 302.87 190.94 304.98C184.47 307.5 177.52 306.55 172.17 303.05C171.65 303.42 171.07 303.73 170.44 303.97C169.97 304.15 169.49 304.29 169.01 304.38C167.61 305.39 166.06 306.25 164.37 306.9C157.9 309.42 150.95 308.47 145.6 304.97Z" fill="#E3D6FF"/>
<path fill-rule="evenodd" clip-rule="evenodd" d="M222.01 179.09C223.86 176.89 222.2 166.38 219.89 164.62C217.58 162.86 207.44 164.12 205.59 166.32L172.74 217.27C171.26 219.57 168.03 219.9 166.11 217.96L149.51 201.19C147.73 199.39 144.78 199.52 143.17 201.48L110 241.66C108.55 243.42 105.97 243.73 104.14 242.36L79.4299 223.86C77.7999 222.64 75.5299 222.74 74.0099 224.1L51.8699 243.94C49.5299 246.04 45.7799 244.99 44.8099 242C42.0499 233.43 37.0999 219.3 34.2799 218.64C33.7599 218.52 33.2199 218.28 32.7099 218.06C31.4499 217.51 30.3999 217.05 30.3999 218.64C30.3999 219.46 30.3899 220.03 30.3699 220.54C30.3499 221.43 30.3299 222.15 30.3999 223.68C30.5399 227.01 40.1799 246.06 44.7799 254.99C46.0199 257.39 49.1299 258.02 51.2299 256.32L74.6599 237.32C76.1799 236.08 78.3499 236.04 79.9199 237.22L106.21 256.9C107.84 258.12 110.11 258.02 111.63 256.66L146.01 225.84C147.57 224.44 149.9 224.38 151.54 225.69L170.34 240.74C172.23 242.25 174.99 241.9 176.44 239.97L222.03 179.11L222.01 179.09Z" fill="white"/>
<path d="M222.01 179.09L220.7 177.99L220.67 178.03L220.64 178.07L222.01 179.1V179.09ZM205.6 166.32L204.29 165.22L204.22 165.3L204.16 165.39L205.6 166.32ZM218.86 165.98C218.86 165.98 219.03 166.14 219.24 166.51C219.44 166.86 219.65 167.32 219.85 167.89C220.26 169.03 220.6 170.47 220.82 171.95C221.04 173.43 221.14 174.89 221.08 176.06C221.05 176.65 220.98 177.13 220.89 177.49C220.79 177.87 220.7 178 220.7 177.99L223.32 180.19C223.79 179.64 224.05 178.95 224.2 178.33C224.36 177.69 224.45 176.97 224.49 176.24C224.57 174.77 224.45 173.08 224.2 171.44C223.95 169.8 223.56 168.14 223.07 166.75C222.82 166.05 222.54 165.39 222.21 164.82C221.89 164.27 221.48 163.69 220.93 163.27L218.86 165.99V165.98ZM206.91 167.42C206.91 167.42 207.08 167.25 207.45 167.05C207.8 166.87 208.25 166.68 208.81 166.5C209.93 166.14 211.33 165.85 212.78 165.67C214.23 165.49 215.65 165.44 216.82 165.53C217.41 165.57 217.89 165.65 218.26 165.74C218.65 165.84 218.82 165.94 218.85 165.97L220.92 163.25C220.38 162.84 219.72 162.59 219.11 162.43C218.48 162.27 217.78 162.17 217.06 162.12C215.62 162.01 213.97 162.08 212.36 162.28C210.75 162.48 209.13 162.8 207.76 163.24C207.07 163.46 206.42 163.72 205.85 164.02C205.3 164.31 204.72 164.7 204.29 165.21L206.91 167.41V167.42ZM174.18 218.2L207.03 167.25L204.15 165.4L171.3 216.35L174.18 218.2ZM164.89 219.16C167.58 221.88 172.1 221.41 174.18 218.19L171.3 216.34C170.41 217.72 168.47 217.92 167.32 216.75L164.89 219.16ZM148.29 202.39L164.89 219.16L167.32 216.75L150.72 199.98L148.29 202.39ZM144.48 202.56C145.45 201.39 147.22 201.31 148.28 202.39L150.71 199.98C148.22 197.46 144.09 197.65 141.84 200.38L144.48 202.56ZM111.31 242.74L144.48 202.56L141.84 200.38L108.67 240.56L111.31 242.74ZM103.11 243.72C105.67 245.64 109.28 245.2 111.32 242.74L108.68 240.56C107.81 241.62 106.26 241.8 105.16 240.98L103.11 243.72ZM78.4 225.22L103.11 243.72L105.16 240.98L80.45 222.48L78.4 225.22ZM75.15 225.36C76.06 224.54 77.42 224.48 78.4 225.22L80.45 222.48C78.17 220.77 74.99 220.91 72.86 222.81L75.14 225.36H75.15ZM53 245.2L75.14 225.36L72.86 222.81L50.72 242.65L53 245.2ZM43.18 242.51C44.52 246.66 49.72 248.15 53.01 245.2L50.73 242.65C49.33 243.91 47.04 243.29 46.45 241.46L43.19 242.51H43.18ZM33.89 220.29C33.7 220.25 33.79 220.19 34.14 220.6C34.45 220.95 34.82 221.48 35.24 222.21C36.09 223.66 37.02 225.67 37.98 227.99C39.89 232.61 41.8 238.24 43.18 242.51L46.44 241.46C45.05 237.16 43.11 231.43 41.15 226.68C40.17 224.31 39.17 222.13 38.21 220.48C37.73 219.66 37.23 218.91 36.72 218.33C36.25 217.8 35.57 217.16 34.68 216.95L33.9 220.28L33.89 220.29ZM32.02 219.61C32.5 219.82 33.19 220.12 33.89 220.29L34.67 216.96C34.33 216.88 33.93 216.71 33.39 216.48L32.02 219.62V219.61ZM32.1 218.63C32.1 218.52 32.1 218.49 32.1 218.5C32.1 218.52 32.07 218.62 31.98 218.76C31.88 218.91 31.73 219.05 31.54 219.14C31.36 219.23 31.21 219.24 31.13 219.25C31.06 219.25 31.03 219.25 31.06 219.25C31.09 219.25 31.15 219.27 31.24 219.3C31.44 219.37 31.68 219.47 32.01 219.62L33.38 216.48C33.08 216.35 32.72 216.19 32.36 216.07C32.03 215.96 31.54 215.81 31 215.83C30.37 215.85 29.64 216.11 29.15 216.82C28.74 217.41 28.66 218.1 28.66 218.63H32.08H32.1ZM32.08 220.56C32.09 220.04 32.11 219.46 32.11 218.62H28.69C28.69 219.41 28.68 219.97 28.66 220.48L32.08 220.56ZM32.1 223.6C32.04 222.11 32.06 221.43 32.08 220.57L28.66 220.49C28.64 221.4 28.62 222.16 28.69 223.75L32.11 223.61L32.1 223.6ZM46.3 254.2C44 249.74 40.45 242.76 37.46 236.49C35.96 233.35 34.62 230.41 33.64 228.06C33.15 226.88 32.76 225.87 32.49 225.07C32.2 224.21 32.11 223.75 32.11 223.6L28.69 223.74C28.72 224.42 28.96 225.29 29.24 226.15C29.54 227.06 29.97 228.16 30.47 229.37C31.48 231.8 32.86 234.81 34.36 237.97C37.37 244.29 40.95 251.3 43.25 255.77L46.29 254.2H46.3ZM50.15 254.98C48.89 256.01 47.03 255.61 46.3 254.19L43.26 255.76C45 259.14 49.38 260.01 52.31 257.63L50.15 254.97V254.98ZM73.57 235.98L50.14 254.98L52.3 257.64L75.73 238.64L73.57 235.98ZM80.94 235.84C78.74 234.2 75.71 234.25 73.58 235.98L75.74 238.64C76.65 237.9 77.95 237.87 78.89 238.58L80.94 235.84ZM107.22 255.52L80.93 235.84L78.88 238.58L105.17 258.26L107.22 255.52ZM110.48 255.38C109.57 256.2 108.21 256.26 107.23 255.52L105.18 258.26C107.47 259.97 110.64 259.83 112.77 257.93L110.49 255.38H110.48ZM144.85 224.56L110.47 255.38L112.75 257.93L147.13 227.11L144.85 224.56ZM152.59 224.34C150.3 222.51 147.03 222.6 144.85 224.56L147.13 227.11C148.06 226.27 149.47 226.23 150.45 227.02L152.59 224.35V224.34ZM171.39 239.39L152.59 224.34L150.45 227.01L169.25 242.06L171.39 239.39ZM175.05 238.92C174.18 240.08 172.52 240.29 171.39 239.38L169.25 242.05C171.89 244.16 175.76 243.67 177.79 240.97L175.05 238.92ZM220.64 178.06L175.05 238.92L177.79 240.97L223.38 180.11L220.64 178.06Z" fill="white"/>
<path d="M230.14 146.04C231.53 145.36 233.16 146.39 233.07 147.9L230.88 185.04C230.79 186.54 229.07 187.39 227.77 186.58L195.51 166.41C194.2 165.59 194.3 163.7 195.69 163.02L230.15 146.05L230.14 146.04Z" fill="white" stroke="white" stroke-width="10.27" stroke-linecap="round"/>
<path fill-rule="evenodd" clip-rule="evenodd" d="M43.7799 224.24C44.7299 224.17 45.6799 224.06 46.5799 223.87C48.0599 225.01 50.0099 225.71 52.1499 225.71C56.7699 225.71 60.5199 224.2 60.5199 218.47C60.5199 214.47 56.7699 211.23 52.1499 211.23C51.7999 211.23 51.4499 211.25 51.1099 211.29C50.4199 205.5 45.4999 201.01 39.5299 201.01C33.5599 201.01 28.6499 205.49 27.9499 211.27C23.7099 211.63 20.3999 214.72 20.3999 218.48C20.3999 222.48 24.1499 225.72 28.7699 225.72C30.0499 225.72 31.5099 225.72 32.8699 225.57C33.5799 227.34 35.6999 228.62 38.1999 228.62C41.2799 228.62 43.7799 226.67 43.7799 224.27C43.7799 224.27 43.7799 224.26 43.7799 224.25V224.24Z" fill="#E3D6FF"/>
<g style="mix-blend-mode:multiply">
<path fill-rule="evenodd" clip-rule="evenodd" d="M85.69 221.47C85.69 221.47 89.6 223.9 93.42 224.53C97.24 225.16 99.11 223.84 107.46 229.5C107.46 229.5 108.66 230.4 108.19 231.24C107.72 232.09 105.41 232.45 102.65 230.36C102.65 230.36 108.77 236.17 111.45 240.02C114.12 243.87 112.21 245 111.2 244.4C111.2 244.4 113.02 247.33 111.62 247.97C110.22 248.61 108.7 246.95 108.7 246.95C108.7 246.95 107.77 249.26 105.08 247.32C102.39 245.38 101.37 242.59 96.02 239.26C96.02 239.26 97.11 243.94 97.36 247.04C97.6 250.14 95.85 250.56 95.15 249.87C94.45 249.19 94.35 246.61 93.15 242.96C91.96 239.31 91 238.79 88.46 237.56C85.91 236.33 82.76 235.05 80.7 232.56C78.64 230.07 75.87 228.74 75.87 228.74C75.87 228.74 71.1 226.06 75.7 221.51C79.96 217.3 85.69 221.48 85.69 221.48V221.47Z" fill="#D6ECEF"/>
</g>
<path fill-rule="evenodd" clip-rule="evenodd" d="M83.78 219.62C83.78 219.62 87.98 221.63 91.85 221.77C95.72 221.9 97.4 220.27 106.42 225.05C106.42 225.05 107.72 225.83 107.37 226.78C107.02 227.73 104.78 228.43 101.76 226.61C101.76 226.61 108.59 231.86 111.75 235.53C114.91 239.2 113.15 240.65 112.08 240.15C112.08 240.15 114.27 242.97 112.97 243.83C111.67 244.69 109.94 243.16 109.94 243.16C109.94 243.16 109.33 245.71 106.4 244.05C103.47 242.39 102.1 239.61 96.36 236.85C96.36 236.85 98.06 241.6 98.7 244.81C99.35 248.02 97.67 248.7 96.88 248.08C96.09 247.46 95.66 244.78 93.99 241.12C92.33 237.46 91.31 237.05 88.63 236.11C85.95 235.17 82.65 234.26 80.28 231.93C77.91 229.6 74.99 228.59 74.99 228.59C74.99 228.59 69.91 226.44 73.87 221.04C77.54 216.04 83.77 219.63 83.77 219.63L83.78 219.62Z" fill="#DA8456"/>
<path fill-rule="evenodd" clip-rule="evenodd" d="M107.66 226.53C107.66 226.35 107.53 226.19 107.35 226.19C107.17 226.19 107.01 226.32 107 226.5C107 226.5 106.97 226.82 106.67 227.07C106.43 227.27 106.04 227.43 105.4 227.42C104.63 227.42 103.54 227.18 102 226.54C101.83 226.47 101.64 226.54 101.57 226.72C101.5 226.89 101.57 227.08 101.75 227.15C103.4 227.84 104.57 228.08 105.4 228.08C106.32 228.08 106.85 227.81 107.17 227.51C107.64 227.06 107.66 226.53 107.66 226.53Z" fill="#B3573F"/>
<path fill-rule="evenodd" clip-rule="evenodd" d="M112.12 239.81C111.94 239.78 111.77 239.9 111.74 240.08C111.71 240.26 111.83 240.43 112.01 240.46C112.01 240.46 112.35 240.52 112.73 240.45C113.01 240.4 113.3 240.29 113.53 240.07C113.87 239.73 114.09 239.09 113.65 237.91C112.7 235.41 108.73 230.43 100.11 225.39C99.9499 225.3 99.7499 225.35 99.6599 225.51C99.5699 225.67 99.6199 225.87 99.7799 225.96C108.19 230.88 112.11 235.71 113.04 238.15C113.34 238.95 113.31 239.38 113.07 239.61C112.95 239.73 112.78 239.78 112.63 239.81C112.37 239.86 112.13 239.81 112.13 239.81H112.12Z" fill="#B3573F"/>
<path fill-rule="evenodd" clip-rule="evenodd" d="M99.9099 232.57C99.7499 232.48 99.5498 232.53 99.4598 232.68C99.3698 232.83 99.4198 233.04 99.5698 233.13C99.5698 233.13 106.13 237.05 109.62 243.25C109.63 243.44 109.62 244.08 108.9 244.23C108.4 244.34 107.98 244.23 107.2 243.76C106.32 243.23 105.05 242.26 102.91 240.63C98.5599 237.31 96.4698 236.52 96.4698 236.52C96.3498 236.47 96.2098 236.5 96.1198 236.59C96.0298 236.68 95.9898 236.81 96.0398 236.93C96.0398 236.93 97.7898 242.04 98.2898 244.45C98.5298 245.59 98.5098 246.48 98.2998 247.1C98.1198 247.62 97.8098 247.92 97.3798 247.97C97.1998 247.99 97.0698 248.15 97.0798 248.33C97.0998 248.51 97.2598 248.64 97.4398 248.62C97.9898 248.57 98.4398 248.27 98.7398 247.72C99.1298 247.02 99.2498 245.87 98.9298 244.31C98.5398 242.44 97.4099 238.96 96.9099 237.45C97.8199 237.92 99.6698 238.99 102.51 241.15C104.67 242.8 105.96 243.78 106.85 244.32C107.84 244.92 108.4 245 109.03 244.86C110.46 244.54 110.25 243.09 110.25 243.09C110.25 243.05 110.23 243.01 110.21 242.98C106.65 236.6 99.8898 232.56 99.8898 232.56L99.9099 232.57Z" fill="#B3573F"/>
<path fill-rule="evenodd" clip-rule="evenodd" d="M86.4498 220.92C84.2798 219.97 79.7498 216.5 72.1798 210.05C64.6098 203.6 62.6498 199.76 55.6898 199.01C48.7398 198.26 44.2798 204.37 46.5798 210.04C48.0998 213.77 53.2298 217.66 61.2198 222C67.5898 225.46 75.5598 228.97 82.4898 232.34C87.7098 234.88 91.5098 234.61 93.5798 230.85C95.6498 227.09 92.2498 223.47 86.4498 220.92Z" fill="#DA8456"/>
<path fill-rule="evenodd" clip-rule="evenodd" d="M56.2899 201.96C56.1099 201.98 55.9699 202.14 55.9899 202.32C56.0099 202.5 56.1699 202.63 56.3499 202.62L62.3599 202.05L77.3799 214.83C77.5199 214.95 77.7299 214.93 77.8499 214.79C77.9699 214.65 77.9499 214.44 77.8099 214.33L62.6799 201.46C62.6099 201.4 62.5199 201.37 62.4299 201.38L56.2899 201.96Z" fill="#B3573F"/>
<path fill-rule="evenodd" clip-rule="evenodd" d="M31.48 34.39C31.48 34.39 27.91 36.69 30.8 39.9C34.08 43.54 36.88 39.75 36.88 39.75C36.88 39.75 42.9 41.72 43.45 36.94C44.06 31.68 38.92 30.77 37.27 32.25C37.27 32.25 36.17 28.5 32.67 30.36C29.17 32.22 31.48 34.38 31.48 34.38V34.39Z" fill="#E3D6FF"/>
<circle cx="94.9862" cy="118.56" r="0.463501" fill="#E0FFFD"/>
<circle cx="109.27" cy="118.319" r="0.463501" fill="#E0FFFD"/>
</svg>
